<?xml version="1.0" encoding="UTF-8"?>
<svg version="1.1" xmlns="http://www.w3.org/2000/svg" width="500" height="500">
<path d="M0 0 C10.57479011 9.77658281 10.57479011 9.77658281 14.5078125 14.265625 C14.5078125 14.925625 14.5078125 15.585625 14.5078125 16.265625 C15.1678125 16.265625 15.8278125 16.265625 16.5078125 16.265625 C18.1781369 18.20932984 19.7262247 20.15417049 21.2578125 22.203125 C21.88429688 23.02006836 21.88429688 23.02006836 22.5234375 23.85351562 C28.35717855 31.54587234 33.37676112 39.40592996 37.5078125 48.140625 C37.93642578 49.04393555 38.36503906 49.94724609 38.80664062 50.87792969 C42.90173345 59.73827759 46.02723162 68.830366 48.5078125 78.265625 C48.6919873 78.96333008 48.87616211 79.66103516 49.06591797 80.37988281 C50.60616796 86.70331433 51.16405128 93.03495294 51.6328125 99.515625 C51.7162793 100.65370605 51.79974609 101.79178711 51.88574219 102.96435547 C52.60083906 113.41498551 52.90890017 123.79701272 52.5078125 134.265625 C52.44013672 136.19921875 52.44013672 136.19921875 52.37109375 138.171875 C51.02005487 154.87562849 44.5474095 172.00811712 36.75097656 186.71582031 C35.66922354 188.9345612 34.98228472 190.85643919 34.5078125 193.265625 C33.8478125 193.265625 33.1878125 193.265625 32.5078125 193.265625 C32.2603125 193.966875 32.0128125 194.668125 31.7578125 195.390625 C30.6319153 197.98018857 29.35347806 200.19090998 27.73828125 202.5 C26.85867645 203.76216308 26.01032681 205.04634 25.18359375 206.34375 C14.7371969 222.23700869 -0.52356183 237.02565428 -16.4921875 247.265625 C-17.48863281 247.91144531 -18.48507812 248.55726563 -19.51171875 249.22265625 C-32.01629192 257.13062695 -44.66070385 263.0341839 -58.65698242 267.65698242 C-60.29156793 268.19908987 -61.91793902 268.76582464 -63.54296875 269.3359375 C-66.89272012 270.39188561 -70.23934069 271.12383107 -73.6796875 271.828125 C-77.03440585 272.51764645 -80.24324458 273.18264403 -83.4921875 274.265625 C-84.95219039 274.3577991 -86.41599821 274.39629808 -87.87890625 274.3984375 C-89.1637793 274.40037109 -89.1637793 274.40037109 -90.47460938 274.40234375 C-91.36728516 274.39847656 -92.25996094 274.39460938 -93.1796875 274.390625 C-94.05302734 274.39449219 -94.92636719 274.39835937 -95.82617188 274.40234375 C-99.86506552 274.39631105 -103.79979697 274.29043405 -107.8046875 273.74609375 C-110.94991019 273.3362819 -113.65855243 273.27648312 -116.8046875 273.453125 C-138.35700911 273.56115669 -160.90087492 264.52144556 -179.4921875 254.265625 C-180.41128906 253.76289063 -181.33039063 253.26015625 -182.27734375 252.7421875 C-209.58411887 237.07649401 -229.96576502 213.85588783 -244.4921875 186.265625 C-244.82959961 185.63172852 -245.16701172 184.99783203 -245.51464844 184.34472656 C-248.13112277 179.29525784 -250.13163842 174.1348808 -251.9921875 168.765625 C-252.27449219 167.981875 -252.55679688 167.198125 -252.84765625 166.390625 C-257.57406378 152.87438265 -260.10396849 140.01129818 -260.70336914 125.73266602 C-260.80683939 123.27705521 -260.93390225 120.82344865 -261.06445312 118.36914062 C-261.14194731 116.80475244 -261.21817056 115.24030065 -261.29296875 113.67578125 C-261.32932938 112.94367935 -261.36569 112.21157745 -261.40315247 111.45729065 C-261.4734783 109.72791029 -261.48858193 107.99643093 -261.4921875 106.265625 C-261.1621875 105.935625 -260.8321875 105.605625 -260.4921875 105.265625 C-260.18531744 102.93219719 -259.92395306 100.60570547 -259.6796875 98.265625 C-254.91936279 57.72770197 -234.15826629 21.93432884 -203.4921875 -4.734375 C-192.75390781 -13.10880772 -180.97248051 -20.28253508 -168.4921875 -25.734375 C-167.30753906 -26.25257812 -166.12289062 -26.77078125 -164.90234375 -27.3046875 C-109.77875476 -50.66004535 -44.55213482 -40.35723267 0 0 Z " fill="#869080" transform="translate(354.4921875,137.734375)"/>
<path d="M0 0 C3.98347226 -0.07480519 7.96666594 -0.12890718 11.95068359 -0.16479492 C13.96336248 -0.18709408 15.97584584 -0.22523653 17.98828125 -0.26367188 C32.82407113 -0.37549944 32.82407113 -0.37549944 38.578125 4.27563477 C41.1073672 6.898247 41.9871185 8.91984846 42.5625 12.5 C41.68709078 17.94699072 38.84914454 21.25011707 35 25 C35.64066406 25.268125 36.28132813 25.53625 36.94140625 25.8125 C44.19367879 29.09817936 49.53936389 33.08698494 53.1640625 40.32421875 C55.18502767 46.79319604 55.27549484 55.17421518 52.5 61.4375 C49.81610853 65.83531514 46.16410411 69.0310088 42 72 C41.38898438 72.43699219 40.77796875 72.87398438 40.1484375 73.32421875 C34.85767895 76.32793626 29.37974359 76.40926566 23.4375 76.5 C22.63401123 76.51861084 21.83052246 76.53722168 21.00268555 76.55639648 C13.38719642 76.47598691 7.139145 73.65785901 1.3828125 68.625 C-2.71150042 63.81360403 -5.69848296 57.07547376 -6.3125 50.8125 C-5.79302752 44.47493573 -3.38928716 39.96570273 1.3125 35.6875 C8.49145506 30.12911075 15.11264759 29.14795024 24 30 C29.87273956 31.17650876 34.62049045 33.971664 38 39 C38.98233559 42.5609665 39.39271201 44.78913796 38.25 48.3125 C37 50 37 50 34 52 C30.12398253 51.91753154 28.46891972 51.42082539 25.5625 48.8125 C23.59646738 45.27364129 23.95860459 43.84515228 25 40 C25.185625 39.05125 25.37125 38.1025 25.5625 37.125 C25.706875 36.42375 25.85125 35.7225 26 35 C22.46569344 32.64379563 21.16428713 32.51008387 17 33 C12.04655197 35.52528723 10.08650772 37.91300998 8 43 C6.78323664 52.12572524 7.34637748 60.49664347 13 68 C16.40739181 71.18023236 18.25927653 71.90442278 22.875 72.5 C29.25248264 72.12270618 34.11676319 69.28632233 38.375 64.625 C43.46952892 58.04918142 43.84216585 51.10184871 43 43 C41.29489899 36.87388858 37.41819269 32.26311417 32 29 C28.71869226 27.73058898 25.42722399 26.78612381 22 26 C22 25.34 22 24.68 22 24 C22.78375 23.7525 23.5675 23.505 24.375 23.25 C27.00984897 22.22729015 27.00984897 22.22729015 28.3125 20.375 C29.86378749 15.01600684 29.48750928 10.97501855 27 6 C24.03 5.34 21.06 4.68 18 4 C18 10.93 18 17.86 18 25 C9 28 9 28 6 28 C5.67 19.75 5.34 11.5 5 3 C2.525 2.01 2.525 2.01 0 1 C0 0.67 0 0.34 0 0 Z " fill="#E0F3E0" transform="translate(139,195)"/>
<path d="M0 0 C3.77435326 3.40323484 5.75662068 6.02648271 7 11 C-3.23 11 -13.46 11 -24 11 C-22.98008283 23.08076488 -22.98008283 23.08076488 -19 29 C-19 29.66 -19 30.32 -19 31 C-17.5459375 30.505 -17.5459375 30.505 -16.0625 30 C-10.57348428 28.43329713 -5.18912301 28.55406753 0.375 29.6875 C1.24125 29.790625 2.1075 29.89375 3 30 C4.77190909 28.64555699 4.77190909 28.64555699 6 27 C6.66 27 7.32 27 8 27 C7 29 6 31 5 33 C5.5775 33.04125 6.155 33.0825 6.75 33.125 C10.32181802 34.51404034 11.29097034 36.64297746 13 40 C13.31775106 42.76542723 13.19297597 45.20184845 13 48 C10.75 48.0625 10.75 48.0625 8 47 C6.79002665 44.76351497 5.92589148 42.5291723 5.08984375 40.12890625 C4.14831842 37.89086675 4.14831842 37.89086675 2.12890625 36.65234375 C-0.44343924 35.86412045 -1.44694233 36.23178265 -4 37 C-7.39812547 37.26139427 -10.79577222 37.44316051 -14.19921875 37.62109375 C-15.12347656 37.74613281 -16.04773438 37.87117188 -17 38 C-18.74773661 41.49547322 -17.8363668 45.28138452 -17 49 C-14.79376071 52.57562919 -12.86949994 54.4639654 -9 56 C-6.60997451 56.30049215 -4.21255899 56.54449036 -1.8125 56.75 C6.28742543 57.6394228 11.71090037 60.21255194 17.0625 66.375 C18.60712739 70.6999567 18.85176611 74.62275448 17.30859375 78.9296875 C14.52282645 84.36135094 10.60084756 86.91631352 5 89.25 C-3.86400925 91.39229935 -13.00690183 91.13708643 -20.9375 86.48046875 C-25.30651427 83.34437707 -28.02363585 80.34803087 -28.9375 74.875 C-28.99408565 71.36668985 -28.98372029 69.80054629 -27 67 C-24.69 67.66 -22.38 68.32 -20 69 C-19.98582031 69.66386719 -19.97164062 70.32773437 -19.95703125 71.01171875 C-19.63909203 77.00119647 -19.63909203 77.00119647 -16.5625 82.0625 C-12.82438434 84.88888014 -10.84368787 85.1811045 -6.1875 85.25 C-5.14980469 85.27578125 -4.11210937 85.3015625 -3.04296875 85.328125 C0.37667646 84.95938277 2.16694076 83.87881764 5 82 C5.66 82 6.32 82 7 82 C8.30031332 78.09906004 8.56276 74.05656169 8 70 C5.71319793 65.51109223 3.46840052 63.23420026 -1 61 C-3.7821861 60.61136567 -3.7821861 60.61136567 -6.6875 60.625 C-14.36601261 60.14213423 -20.27253605 57.85734318 -25.625 52.25 C-27.41572597 48.01737498 -27.83944351 44.52815199 -27 40 C-25.88708087 37.65423512 -24.66446658 36.02856865 -23 34 C-23.556875 33.79375 -24.11375 33.5875 -24.6875 33.375 C-28.24755526 31.25821039 -31.27910762 28.14898932 -32.6171875 24.16015625 C-33.82552083 17.34170386 -34.18850601 11.00403165 -30.375 5 C-27.18612153 0.84844124 -24.0239147 -1.79043412 -19.125 -3.75 C-11.76016554 -4.61645111 -6.35113258 -4.01925918 0 0 Z " fill="#E1F2E0" transform="translate(233,224)"/>
<path d="M0 0 C0.99 0 1.98 0 3 0 C2.7834375 1.28390625 2.7834375 1.28390625 2.5625 2.59375 C-0.33447117 22.71160535 -1.24731209 45.2590109 4 65 C4.22042969 66.12148438 4.44085938 67.24296875 4.66796875 68.3984375 C9.93635592 92.62766988 24.09281336 113.43340671 41 131 C41.56847656 131.63164062 42.13695312 132.26328125 42.72265625 132.9140625 C65.12085721 157.08807991 100.90756785 169.81758209 133.05859375 171.2578125 C150.72867595 171.77180453 169.58177004 169.91634097 186 163 C186.67192383 162.72140137 187.34384766 162.44280273 188.03613281 162.15576172 C215.96234032 150.4926057 240.05382571 133.0376046 255.90917969 106.80126953 C256.96756365 105.05356209 258.04935401 103.32207678 259.1328125 101.58984375 C264.14021213 93.29812307 267.45399782 84.97970072 270.41113281 75.79003906 C271.10285977 73.68732676 271.9006077 71.63113439 272.6875 69.5625 C279.30037853 48.62171797 277.94684611 25.58056278 276 4 C276.66 4 277.32 4 278 4 C280.70866523 12.95226284 281.54711472 21.29334054 281.5 30.625 C281.49790527 31.29375153 281.49581055 31.96250305 281.49365234 32.65151978 C281.27349712 67.09511011 269.39761653 98.86103986 247 125 C246.2265625 125.91394531 245.453125 126.82789063 244.65625 127.76953125 C236.78828959 136.78721123 228.0778435 144.54156892 218 151 C217.41395996 151.37769531 216.82791992 151.75539063 216.22412109 152.14453125 C184.73897145 172.20586554 147.22533906 180.22681839 110.42529297 172.55664062 C98.9214728 169.91634367 87.46398985 166.52226799 77 161 C76.34854004 160.66516602 75.69708008 160.33033203 75.02587891 159.98535156 C42.4714435 143.16109182 20.21272016 117.58296481 6 84 C5.649375 83.19175781 5.29875 82.38351562 4.9375 81.55078125 C-1.46652199 66.26117875 -3.36351487 50.27254352 -3.31567383 33.8347168 C-3.31250819 31.56835985 -3.33609644 29.3033069 -3.36132812 27.03710938 C-3.40010079 17.61535156 -2.4164925 9.15670539 0 0 Z " fill="#DDE5D3" transform="translate(112,223)"/>
<path d="M0 0 C0 17.16 0 34.32 0 52 C1.32 51.01 2.64 50.02 4 49 C4.66 49 5.32 49 6 49 C6.0825 48.113125 6.165 47.22625 6.25 46.3125 C7.12659036 42.44089259 8.30731702 40.88760784 11 38 C13.8046875 36.3046875 13.8046875 36.3046875 16.875 34.875 C18.38707031 34.15957031 18.38707031 34.15957031 19.9296875 33.4296875 C20.94289063 32.95789063 21.95609375 32.48609375 23 32 C28.17466683 29.80849311 28.17466683 29.80849311 32 26 C31.76522801 22.35458155 31.76522801 22.35458155 31 19 C25.04252409 17.72339802 22.10622167 17.99101719 16.83203125 21.0078125 C14.60928141 22.21160452 12.49870185 22.68766227 10 23 C10 21.68 10 20.36 10 19 C15.3277491 14.89002213 21.44216102 14.35592653 28 15 C32.69175489 15.98002117 36.07346515 17.07346515 39.5 20.5 C41.88549432 24.47582387 42.11987216 27.42620774 42.09765625 31.98046875 C42.09443359 33.14384766 42.09121094 34.30722656 42.08789062 35.50585938 C42.07532227 37.32827148 42.07532227 37.32827148 42.0625 39.1875 C42.05798828 40.41404297 42.05347656 41.64058594 42.04882812 42.90429688 C42.03703065 45.93624668 42.02056921 48.96809906 42 52 C42.45375 51.505 42.9075 51.01 43.375 50.5 C45 49 45 49 47 49 C46.61502006 51.23288365 46.10506663 52.83656302 44.875 54.75 C41.84172625 56.7721825 39.52870733 56.50410105 36 56 C33.07827713 52.68871408 32.50153801 49.31322686 32 45 C31.13375 46.36125 31.13375 46.36125 30.25 47.75 C26.69660246 52.88268533 24.18211737 55.51629183 18 57 C13.93100218 57.49824463 12.5348736 57.37208599 9.125 55 C8.42375 54.34 7.7225 53.68 7 53 C6.38125 53.309375 5.7625 53.61875 5.125 53.9375 C1.425254 55.787373 -0.77257174 56.43137023 -5 56 C-7.67102305 53.21890564 -8.37886365 51.22490802 -8.43237305 47.41503906 C-8.45216721 46.51440735 -8.47196136 45.61377563 -8.49235535 44.68585205 C-8.49874527 43.72217712 -8.50513519 42.7585022 -8.51171875 41.765625 C-8.52966995 40.77246277 -8.54762115 39.77930054 -8.56611633 38.75604248 C-8.62025006 35.58740469 -8.65412528 32.41891782 -8.6875 29.25 C-8.72067032 27.10023941 -8.75515971 24.95049873 -8.79101562 22.80078125 C-8.8759781 17.53398949 -8.94431501 12.26717827 -9 7 C-9.99 6.67 -10.98 6.34 -12 6 C-12 5.34 -12 4.68 -12 4 C-10.56570999 3.32645501 -9.12742943 2.66140299 -7.6875 2 C-6.88699219 1.62875 -6.08648437 1.2575 -5.26171875 0.875 C-3 0 -3 0 0 0 Z " fill="#E1F2DF" transform="translate(265,205)"/>
<path d="M0 0 C4.05479436 4.49315051 5.12671592 6.89652035 5.09765625 12.8828125 C5.09443359 14.04941406 5.09121094 15.21601563 5.08789062 16.41796875 C5.07532227 18.25294922 5.07532227 18.25294922 5.0625 20.125 C5.05798828 21.35605469 5.05347656 22.58710938 5.04882812 23.85546875 C5.0370133 26.90369392 5.02054028 29.95182314 5 33 C6.65 32.34 8.3 31.68 10 31 C8.61043975 34.35810395 7.17473533 36.18586552 4 38 C1.4375 38.4375 1.4375 38.4375 -1 38 C-4.42609783 34.94098408 -4.57599326 31.40967012 -5 27 C-5.680625 28.0725 -6.36125 29.145 -7.0625 30.25 C-10.34313847 34.78040551 -13.70411547 37.39971863 -19.2734375 38.4140625 C-23.49594348 38.68059942 -25.4863821 38.34590593 -29.0625 35.9375 C-31.49484049 32.24975797 -31.62070813 30.34495691 -31 26 C-29.09071894 22.13980246 -27.29304482 20.17586283 -23.5625 18.0625 C-22.25152344 17.30646484 -22.25152344 17.30646484 -20.9140625 16.53515625 C-16.82635574 14.38171288 -12.61797204 12.50527211 -8.37109375 10.6875 C-5.70182703 9.15636766 -5.70182703 9.15636766 -5.1015625 5.9296875 C-4.76939805 3.08781851 -4.76939805 3.08781851 -5.9375 1.125 C-9.25108301 -0.68240892 -12.38680534 -0.72779144 -16 0 C-18.20509418 1.18429109 -20.15111436 2.48710992 -22.140625 4.00390625 C-24 5 -24 5 -26.234375 4.65234375 C-26.81703125 4.43707031 -27.3996875 4.22179687 -28 4 C-27.9375 2.1875 -27.9375 2.1875 -27 0 C-19.16608776 -5.10115216 -7.85734647 -4.74384463 0 0 Z " fill="#DFF0DE" transform="translate(357,276)"/>
<path d="M0 0 C4.26879648 1.97451822 7.19867326 4.19491436 9.7109375 8.27734375 C9.7109375 9.26734375 9.7109375 10.25734375 9.7109375 11.27734375 C7.47265625 12.890625 7.47265625 12.890625 4.3984375 14.58984375 C3.31175781 15.19570313 2.22507812 15.8015625 1.10546875 16.42578125 C-0.57482422 17.34230469 -0.57482422 17.34230469 -2.2890625 18.27734375 C-3.33707031 18.86773437 -4.38507813 19.458125 -5.46484375 20.06640625 C-12.99863004 24.27734375 -12.99863004 24.27734375 -15.2890625 24.27734375 C-14.52627627 25.57377885 -13.75349291 26.86433523 -12.9765625 28.15234375 C-12.54730469 28.87164062 -12.11804688 29.5909375 -11.67578125 30.33203125 C-10.27153875 32.54580708 -10.27153875 32.54580708 -7.2890625 34.27734375 C-5.3386552 34.62900192 -5.3386552 34.62900192 -3.2890625 34.58984375 C-2.6084375 34.60660156 -1.9278125 34.62335938 -1.2265625 34.640625 C1.34397906 34.15864846 2.15458015 33.36166893 3.7109375 31.27734375 C4.49450652 29.01340404 4.49450652 29.01340404 4.8984375 26.58984375 C5.13626953 25.37748047 5.13626953 25.37748047 5.37890625 24.140625 C5.54326172 23.21830078 5.54326172 23.21830078 5.7109375 22.27734375 C7.6909375 22.27734375 9.6709375 22.27734375 11.7109375 22.27734375 C12.35559896 27.43463546 10.94370486 30.29809495 8.14453125 34.4453125 C5.45577924 37.88134709 2.83084843 39.90404011 -1.2890625 41.27734375 C-6.5014806 41.77649211 -10.89276485 41.94963521 -15.6640625 39.65234375 C-22.07293666 33.85383855 -25.74288991 28.37495462 -26.6640625 19.77734375 C-25.87120333 12.37732486 -23.46258234 7.87603174 -18.10546875 2.72265625 C-12.72485179 -1.55869488 -6.52254706 -2.05916588 0 0 Z " fill="#E0F1DF" transform="translate(281.2890625,272.72265625)"/>
<path d="M0 0 C2.375 1.5 2.375 1.5 4 3 C3.855625 3.70125 3.71125 4.4025 3.5625 5.125 C3.376875 6.07375 3.19125 7.0225 3 8 C2.690625 9.5159375 2.690625 9.5159375 2.375 11.0625 C1.82501712 13.87727096 1.82501712 13.87727096 2.5625 16.0625 C3.20984451 18.92931139 2.39728864 20.47157293 1 23 C-0.98 23.99 -0.98 23.99 -3 25 C3.93 25.33 10.86 25.66 18 26 C18 31.16240998 16.37767402 32.50954126 12.9921875 36.16015625 C9.1338859 39.72341126 5.09354799 41.1140217 -0.0625 41.4375 C-4.67848678 40.92461258 -6.53895561 40.07648391 -10 37 C-16.12166106 28.77712014 -16.93103412 21.05307628 -16 11 C-14.43974243 6.5911394 -12.14025468 3.93559359 -8.5625 1 C-5.44236967 -0.21761183 -3.32333164 -0.4242551 0 0 Z " fill="#84907D" transform="translate(162,227)"/>
<path d="M0 0 C3.77435326 3.40323484 5.75662068 6.02648271 7 11 C-3.23 11 -13.46 11 -24 11 C-22.94541724 19.10768006 -22.94541724 19.10768006 -21 27 C-21.66 27 -22.32 27 -23 27 C-23 27.66 -23 28.32 -23 29 C-24.32 28.67 -25.64 28.34 -27 28 C-27.33 28.99 -27.66 29.98 -28 31 C-32.98921365 25.20607447 -33.47461523 20.65498208 -33.41015625 13.11328125 C-32.65943949 7.41498358 -29.65601018 3.3435384 -25.40625 -0.40625 C-17.41049537 -6.11750331 -8.00686283 -5.06707371 0 0 Z " fill="#E0F2E0" transform="translate(233,224)"/>
<path d="M0 0 C0.33 0 0.66 0 1 0 C1 6.27 1 12.54 1 19 C-0.32 19.33 -1.64 19.66 -3 20 C-3.99 20.66 -4.98 21.32 -6 22 C-7.67381019 21.70462173 -9.33911955 21.36106097 -11 21 C-16.44012749 20.7136775 -21.63804905 21.0873275 -27 22 C-31.27348557 14.96942697 -32.03315163 10.14701378 -32 2 C-31.06615479 1.97494385 -30.13230957 1.9498877 -29.17016602 1.92407227 C-25.71674811 1.82913072 -22.2635104 1.72988742 -18.81030273 1.62768555 C-17.31360731 1.58428187 -15.81686061 1.54261087 -14.32006836 1.50268555 C-12.17285688 1.44511384 -10.02590479 1.38138284 -7.87890625 1.31640625 C-6.5854126 1.27974854 -5.29191895 1.24309082 -3.95922852 1.20532227 C-1.11444992 1.3332722 -1.11444992 1.3332722 0 0 Z " fill="#838D7D" transform="translate(241,233)"/>
<path d="M0 0 C0 17.16 0 34.32 0 52 C0.66 52 1.32 52 2 52 C1.67 53.32 1.34 54.64 1 56 C-1.8125 56.25 -1.8125 56.25 -5 56 C-7.68026056 53.22858676 -8.37890854 51.22171191 -8.43237305 47.41503906 C-8.45216721 46.51440735 -8.47196136 45.61377563 -8.49235535 44.68585205 C-8.49874527 43.72217712 -8.50513519 42.7585022 -8.51171875 41.765625 C-8.52966995 40.77246277 -8.54762115 39.77930054 -8.56611633 38.75604248 C-8.62025006 35.58740469 -8.65412528 32.41891782 -8.6875 29.25 C-8.72067032 27.10023941 -8.75515971 24.95049873 -8.79101562 22.80078125 C-8.8759781 17.53398949 -8.94431501 12.26717827 -9 7 C-9.99 6.67 -10.98 6.34 -12 6 C-12 5.34 -12 4.68 -12 4 C-10.56570999 3.32645501 -9.12742943 2.66140299 -7.6875 2 C-6.88699219 1.62875 -6.08648437 1.2575 -5.26171875 0.875 C-3 0 -3 0 0 0 Z " fill="#E2F5E2" transform="translate(265,205)"/>
<path d="M0 0 C0 16.17 0 32.34 0 49 C1.65 48.01 3.3 47.02 5 46 C4.67218843 49.05957468 3.94321599 50.05836134 1.75 52.3125 C-1 54 -1 54 -3.6875 53.875 C-6 53 -6 53 -8 51 C-8.2784729 49.05111694 -8.2784729 49.05111694 -8.31884766 46.64208984 C-8.34865219 45.29091568 -8.34865219 45.29091568 -8.37905884 43.91244507 C-8.39638565 42.45144882 -8.39638565 42.45144882 -8.4140625 40.9609375 C-8.43342865 39.96494537 -8.4527948 38.96895325 -8.4727478 37.94277954 C-8.53264965 34.7536075 -8.57897138 31.56439957 -8.625 28.375 C-8.66317001 26.21612987 -8.70222116 24.05727512 -8.7421875 21.8984375 C-8.8383597 16.59909466 -8.92337589 11.29965957 -9 6 C-9.99 6 -10.98 6 -12 6 C-12 5.34 -12 4.68 -12 4 C-10.3767313 3.3291288 -8.75132422 2.66342971 -7.125 2 C-6.22007812 1.62875 -5.31515625 1.2575 -4.3828125 0.875 C-2 0 -2 0 0 0 Z " fill="#E1F4E1" transform="translate(251,208)"/>
<path d="M0 0 C2.64 0 5.28 0 8 0 C8 0.99 8 1.98 8 3 C8.804375 2.505 9.60875 2.01 10.4375 1.5 C14.80489347 -0.33890252 18.32444125 -0.79176129 23 0 C25.34831738 1.10932784 26.97091499 2.33510974 29 4 C28.01 5.32 27.02 6.64 26 8 C24.68 7.67 23.36 7.34 22 7 C22 6.34 22 5.68 22 5 C20.58376784 4.94552953 19.16691809 4.90699492 17.75 4.875 C16.56664062 4.84019531 16.56664062 4.84019531 15.359375 4.8046875 C12.61010274 4.88503237 12.61010274 4.88503237 9 7 C8.67 18.22 8.34 29.44 8 41 C5.36 41 2.72 41 0 41 C0 27.47 0 13.94 0 0 Z " fill="#E0F2DF" transform="translate(299,273)"/>
<path d="M0 0 C0.66 0.33 1.32 0.66 2 1 C2.0987934 6.92646399 2.17143282 12.85244995 2.21972656 18.77954102 C2.23985609 20.79622749 2.26716237 22.81285551 2.30175781 24.8293457 C2.35021722 27.72622082 2.37295499 30.62232515 2.390625 33.51953125 C2.41127014 34.42274612 2.43191528 35.325961 2.45318604 36.25654602 C2.45542928 42.49826679 2.45542928 42.49826679 0.10058594 45.0925293 C-2 46 -2 46 -4 46 C-4.09878601 39.93111949 -4.17142949 33.86270561 -4.21972656 27.79321289 C-4.23985731 25.72802582 -4.26716445 23.66289584 -4.30175781 21.59790039 C-4.35021162 18.63152999 -4.37295385 15.66591228 -4.390625 12.69921875 C-4.41127014 11.7741301 -4.43191528 10.84904144 -4.45318604 9.8959198 C-4.45544041 3.47384038 -4.45544041 3.47384038 -1.97558594 0.89379883 C-1.32364258 0.59884521 -0.67169922 0.3038916 0 0 Z " fill="#828B7B" transform="translate(255,211)"/>
<path d="M0 0 C1.12591553 0.00523682 2.25183105 0.01047363 3.41186523 0.01586914 C4.62680664 0.0190918 5.84174805 0.02231445 7.09350586 0.02563477 C8.37290039 0.03401367 9.65229492 0.04239258 10.97045898 0.05102539 C12.2537207 0.05553711 13.53698242 0.06004883 14.85913086 0.06469727 C18.04211921 0.07652994 21.22501661 0.09301471 24.40795898 0.11352539 C24.07795898 2.09352539 23.74795898 4.07352539 23.40795898 6.11352539 C22.08795898 6.11352539 20.76795898 6.11352539 19.40795898 6.11352539 C19.40795898 6.77352539 19.40795898 7.43352539 19.40795898 8.11352539 C13.94661293 11.36709325 9.79513733 13.24673445 3.40795898 12.11352539 C-0.27265779 9.18340314 -2.87580955 5.83460042 -3.59204102 1.11352539 C-2.59204102 0.11352539 -2.59204102 0.11352539 0 0 Z " fill="#5ECF56" transform="translate(153.592041015625,253.886474609375)"/>
<path d="M0 0 C0.20086443 3.71599191 0.1519437 4.77208445 -2 8 C-2.24055468 10.05709596 -2.24055468 10.05709596 -2.125 12.1875 C-2.08375 13.445625 -2.0425 14.70375 -2 16 C1.91211733 14.84414715 4.8745041 13.64465038 8 11 C8.75 12.75 8.75 12.75 9 15 C6.24113193 18.47413016 3.21446859 20.62365918 -1.18359375 21.37109375 C-5.42183005 21.4959638 -7.4510726 21.3696858 -11.0625 18.9375 C-13.49484049 15.24975797 -13.62070813 13.34495691 -13 9 C-10.56675083 3.1872381 -6.30109421 0 0 0 Z " fill="#E2F2E0" transform="translate(339,293)"/>
<path d="M0 0 C0 0.66 0 1.32 0 2 C-0.99 2 -1.98 2 -3 2 C-3 2.66 -3 3.32 -3 4 C-0.525 4.495 -0.525 4.495 2 5 C1.125 9.875 1.125 9.875 0 11 C-1.68608966 11.07205511 -3.37500659 11.08386068 -5.0625 11.0625 C-5.98160156 11.05347656 -6.90070313 11.04445313 -7.84765625 11.03515625 C-8.55792969 11.02355469 -9.26820313 11.01195313 -10 11 C-10 11.99 -10 12.98 -10 14 C-11.93370231 15.00732399 -13.87210306 16.00563288 -15.8125 17 C-16.89144531 17.556875 -17.97039062 18.11375 -19.08203125 18.6875 C-22 20 -22 20 -25 20 C-25.33 17.69 -25.66 15.38 -26 13 C-26.99 12.67 -27.98 12.34 -29 12 C-27.21118264 10.99491199 -25.41885304 9.99607264 -23.625 9 C-22.62726563 8.443125 -21.62953125 7.88625 -20.6015625 7.3125 C-18 6 -18 6 -16 6 C-16 8.64 -16 11.28 -16 14 C-14.68 13.67 -13.36 13.34 -12 13 C-12 10.03 -12 7.06 -12 4 C-10.68 4 -9.36 4 -8 4 C-8 3.34 -8 2.68 -8 2 C-5.09399739 0.74335022 -3.20395416 0 0 0 Z " fill="#D4D9C6" transform="translate(207,116)"/>
<path d="M0 0 C75.9 0 151.8 0 230 0 C230 0.33 230 0.66 230 1 C154.1 1 78.2 1 0 1 C0 0.67 0 0.34 0 0 Z " fill="#FFFBF8" transform="translate(256,0)"/>
<path d="M0 0 C3.36513174 0.58019513 4.63451473 1.63451473 7 4 C8.3222304 4.37496086 9.65581749 4.71353487 11 5 C10.96519531 5.62648437 10.93039062 6.25296875 10.89453125 6.8984375 C10.86746094 7.71570313 10.84039062 8.53296875 10.8125 9.375 C10.77769531 10.18710938 10.74289062 10.99921875 10.70703125 11.8359375 C10.80371094 12.55007812 10.90039062 13.26421875 11 14 C11.99 14.66 12.98 15.32 14 16 C13.814375 15.21625 13.62875 14.4325 13.4375 13.625 C13 11 13 11 14 9 C17.37462715 9.54723683 19.08235 10.0549 22 12 C22 12.66 22 13.32 22 14 C23.32 14.66 24.64 15.32 26 16 C24.72530598 18.54938804 23.50840774 18.74579613 21 20 C19.29078411 21.5412312 19.29078411 21.5412312 18 23 C17.34 22.01 16.68 21.02 16 20 C14.35448038 19.28272222 12.68577711 18.61674772 11 18 C10.01 17.34 9.02 16.68 8 16 C8 14.68 8 13.36 8 12 C5.69 12 3.38 12 1 12 C0.67 11.34 0.34 10.68 0 10 C-2.02463255 9.34786708 -2.02463255 9.34786708 -4 9 C-2.80100302 5.9168649 -1.52299523 2.93720508 0 0 Z " fill="#E5EAD6" transform="translate(316,125)"/>
<path d="M0 0 C0.99 0 1.98 0 3 0 C2.7834375 1.28390625 2.7834375 1.28390625 2.5625 2.59375 C-0.35178437 22.83183593 -1.06442331 45.10967424 4 65 C4.35118643 66.99694246 4.69010826 68.99623399 5 71 C4.34 71 3.68 71 3 71 C2.67 71.99 2.34 72.98 2 74 C1.53326542 72.27308204 1.07728127 70.5432595 0.625 68.8125 C0.36976562 67.84957031 0.11453125 66.88664062 -0.1484375 65.89453125 C-2.4963942 55.15639901 -3.34755049 44.78730078 -3.31567383 33.8347168 C-3.31250819 31.56835985 -3.33609644 29.3033069 -3.36132812 27.03710938 C-3.40010079 17.61535156 -2.4164925 9.15670539 0 0 Z " fill="#D9E1CF" transform="translate(112,223)"/>
<path d="M0 0 C5.96004742 -0.49667062 10.01455152 0.64752922 15 4 C19 8.1 19 8.1 19 12 C15.23075037 14.70757765 11.07850001 16.79310613 7 19 C5.81083984 19.68255859 5.81083984 19.68255859 4.59765625 20.37890625 C1.52896553 22.06933664 -0.45997486 23.04500209 -4 22.75 C-4.66 22.5025 -5.32 22.255 -6 22 C-2.07744874 18.87872999 2.20442089 16.70948687 6.63671875 14.40234375 C9.11567378 13.21947118 9.11567378 13.21947118 10 11 C9.34 11 8.68 11 8 11 C6.66666667 9.66666667 5.33333333 8.33333333 4 7 C2.36021682 5.95650161 0.69905634 4.94392019 -1 4 C-0.67 2.68 -0.34 1.36 0 0 Z " fill="#E3F3E1" transform="translate(272,272)"/>
<path d="M0 0 C3.375 1.875 3.375 1.875 6 4 C6 4.66 6 5.32 6 6 C6.66 6 7.32 6 8 6 C6.56623011 10.30130966 3.38384483 11.23625005 -0.4375 13.1875 C-1.13166016 13.55552734 -1.82582031 13.92355469 -2.54101562 14.30273438 C-7.71035772 17 -7.71035772 17 -10 17 C-11.35598277 12.93205168 -11.65482606 9.24892816 -11 5 C-7.87884186 0.50186032 -5.44400843 -0.99991992 0 0 Z " fill="#858F7E" transform="translate(274,277)"/>
<path d="M0 0 C2.64 0 5.28 0 8 0 C8 1.32 8 2.64 8 4 C8.66 4 9.32 4 10 4 C10.33 3.01 10.66 2.02 11 1 C14.41943506 1.42269769 17.72174346 1.91991217 21 3 C22.625 5.625 22.625 5.625 23 8 C23.66 7.34 24.32 6.68 25 6 C24.67 8.31 24.34 10.62 24 13 C23.01 13 22.02 13 21 13 C20.34 11.68 19.68 10.36 19 9 C18.67 9.99 18.34 10.98 18 12 C16.3954444 11.85851011 14.79136233 11.71164314 13.1875 11.5625 C12.29417969 11.48128906 11.40085937 11.40007812 10.48046875 11.31640625 C8 11 8 11 5 10 C5 8.68 5 7.36 5 6 C3.68 6 2.36 6 1 6 C0.67 6.99 0.34 7.98 0 9 C0 6.03 0 3.06 0 0 Z " fill="#A6AB98" transform="translate(265,110)"/>
<path d="M0 0 C9.63842852 17.92019262 7.69512177 55.87973451 2.12011719 75.02099609 C-0.08738516 82.07187116 -2.49468715 89.04988958 -5 96 C-6.10708115 92.6900629 -5.88044909 90.74450125 -4.8203125 87.4453125 C-4.55089844 86.58292969 -4.28148437 85.72054687 -4.00390625 84.83203125 C-3.71386719 83.93871094 -3.42382812 83.04539062 -3.125 82.125 C-2.5616759 80.35786002 -2.00169177 78.58965131 -1.4453125 76.8203125 C-1.19281738 76.03930176 -0.94032227 75.25829102 -0.68017578 74.45361328 C0.62191399 69.75655577 1.12532655 65.20129512 1.12939453 60.33691406 C1.13412277 58.70426605 1.13412277 58.70426605 1.13894653 57.03863525 C1.13591019 55.29474518 1.13591019 55.29474518 1.1328125 53.515625 C1.13376923 52.30485291 1.13472595 51.09408081 1.13571167 49.84661865 C1.13639119 47.28804472 1.13455282 44.72946904 1.13037109 42.17089844 C1.12503829 38.27795479 1.13031427 34.38512749 1.13671875 30.4921875 C1.13605756 27.99999975 1.13477557 25.50781207 1.1328125 23.015625 C1.13483673 21.86112854 1.13686096 20.70663208 1.13894653 19.51715088 C1.12014509 12.94986072 0.80675583 6.51913914 0 0 Z " fill="#E7E8E0" transform="translate(402,216)"/>
<path d="M0 0 C1.64181443 3.28362886 0.08525129 6.08770843 -0.984375 9.45703125 C-3.10680536 14.77127035 -6.68611823 18.68369256 -12 21 C-14.3125 20.6875 -14.3125 20.6875 -16 20 C-16.34923778 15.63452779 -16.36323512 12.19447425 -13.6875 8.5546875 C-9.72479003 4.90385749 -4.73005072 2.5137691 0 0 Z " fill="#868F7E" transform="translate(297,236)"/>
<path d="M0 0 C1.63227948 3.26455895 0.20964116 5.96448674 -0.85546875 9.3203125 C-3.26270288 14.95636237 -6.81630073 19.04711305 -12.4375 21.5 C-13.7059375 21.7475 -13.7059375 21.7475 -15 22 C-16 21 -16 21 -16.4375 17.375 C-16.35170845 13.0074302 -14.97610175 10.78781073 -12 7.67578125 C-8.32224537 4.59422513 -4.21153557 2.27223164 0 0 Z " fill="#85907E" transform="translate(352,288)"/>
<path d="M0 0 C-1 2 -2 4 -3 6 C-2.13375 6.061875 -2.13375 6.061875 -1.25 6.125 C2.32181802 7.51404034 3.29097034 9.64297746 5 13 C5.31775106 15.76542723 5.19297597 18.20184845 5 21 C2.75 21.0625 2.75 21.0625 0 20 C-1.20997335 17.76351497 -2.07410852 15.5291723 -2.91015625 13.12890625 C-4.29054219 10.43245343 -5.13639713 9.93832828 -8 9 C-10.24133258 8.71306612 -12.4944319 8.51033409 -14.75 8.375 C-15.92046875 8.30023438 -17.0909375 8.22546875 -18.296875 8.1484375 C-19.18890625 8.09945313 -20.0809375 8.05046875 -21 8 C-20.67 7.34 -20.34 6.68 -20 6 C-18.109375 5.40234375 -18.109375 5.40234375 -15.75 4.9375 C-14.93660156 4.76992187 -14.12320313 4.60234375 -13.28515625 4.4296875 C-11.59121207 4.11116808 -9.89064751 3.82743406 -8.1875 3.5625 C-4.98009514 2.73773875 -3.26602052 0 0 0 Z " fill="#E5F5E3" transform="translate(241,251)"/>
<path d="M0 0 C3.47339053 0.56508523 4.95006976 1.62643336 7.1875 4.3125 C7.69667969 4.90675781 8.20585937 5.50101563 8.73046875 6.11328125 C10 8 10 8 11 12 C1.1 12 -8.8 12 -19 12 C-18.67 11.01 -18.34 10.02 -18 9 C-12.06 9 -6.12 9 0 9 C-0.99 7.35 -1.98 5.7 -3 4 C-2.34 4 -1.68 4 -1 4 C-0.67 2.68 -0.34 1.36 0 0 Z " fill="#E3F4E1" transform="translate(229,223)"/>
<path d="M0 0 C2.4375 0.75 2.4375 0.75 4.4375 2.75 C5.10416667 4.41666667 5.77083333 6.08333333 6.4375 7.75 C7.0975 8.41 7.7575 9.07 8.4375 9.75 C8.25 12.25 8.25 12.25 7.4375 14.75 C4.4375 16.75 4.4375 16.75 1.875 16.4375 C-0.5625 15.75 -0.5625 15.75 -2.5625 14.75 C-4.28956364 10.4831369 -5.01573217 6.30639859 -5.5625 1.75 C-2.5625 -0.25 -2.5625 -0.25 0 0 Z " fill="#9BA18E" transform="translate(372.5625,178.25)"/>
<path d="M0 0 C10.56 0 21.12 0 32 0 C32 5.16240998 30.37767402 6.50954126 26.9921875 10.16015625 C23.1338859 13.72341126 19.09354799 15.1140217 13.9375 15.4375 C9.32151322 14.92461258 7.46104439 14.07648391 4 11 C2.03193355 8.4790489 0.22359492 5.96463047 -1 3 C-0.67 2.01 -0.34 1.02 0 0 Z M3 1 C2.67 1.99 2.34 2.98 2 4 C3.71760829 7.07678035 3.71760829 7.07678035 6 10 C6.4125 10.61875 6.825 11.2375 7.25 11.875 C10.30993858 13.84210338 13.54821696 13.5803883 17 13 C19.81439088 11.89622361 22.40494959 10.54598748 25 9 C25 8.34 25 7.68 25 7 C26.32 7 27.64 7 29 7 C29.33 5.02 29.66 3.04 30 1 C21.09 1 12.18 1 3 1 Z " fill="#81B176" transform="translate(148,253)"/>
<path d="M0 0 C2.65988089 1.69218103 4.9528005 3.59811852 7 6 C7 6.66 7 7.32 7 8 C0.4 8 -6.2 8 -13 8 C-10.1964127 0.99103174 -7.72232116 -1.17798119 0 0 Z " fill="#87927F" transform="translate(222,224)"/>
<path d="M0 0 C-6.33942441 4.22628294 -12.55037418 4.29279287 -19.9375 4.1875 C-20.79279297 4.18685547 -21.64808594 4.18621094 -22.52929688 4.18554688 C-26.4752403 4.15845802 -30.32613732 4.01479566 -34.23828125 3.484375 C-38.6382412 2.91781733 -42.84340614 3.01694968 -47.265625 3.16015625 C-50.10429991 2.99389101 -51.54186573 2.33045041 -54 1 C-47.43467443 0.85652461 -40.86932393 0.7142344 -34.30395508 0.57275391 C-32.07217838 0.52452202 -29.84040744 0.47602247 -27.60864258 0.42724609 C-24.39405791 0.35703676 -21.17945348 0.28780155 -17.96484375 0.21875 C-16.97290512 0.19687622 -15.98096649 0.17500244 -14.95896912 0.15246582 C-9.97121857 0.04628381 -4.98887479 -0.02423254 0 0 Z " fill="#E7E7DF" transform="translate(281,408)"/>
<path d="M0 0 C-0.33 0.99 -0.66 1.98 -1 3 C-5.51900045 4.97318188 -10.19744851 5.59884409 -15.0625 6.125 C-15.82675293 6.20991699 -16.59100586 6.29483398 -17.37841797 6.38232422 C-26.90300862 7.33344368 -36.44104134 7.16968566 -46 7 C-46 6.67 -46 6.34 -46 6 C-44.02 5.67 -42.04 5.34 -40 5 C-40 4.67 -40 4.34 -40 4 C-38.98164063 3.96261719 -37.96328125 3.92523438 -36.9140625 3.88671875 C-28.13464862 3.50013119 -19.62376962 2.61947727 -10.97900391 1.01635742 C-7.26932564 0.33463562 -3.77581221 -0.17095213 0 0 Z " fill="#D1D9C7" transform="translate(285,391)"/>
<path d="M0 0 C0.33 0.99 0.66 1.98 1 3 C1.66 3.66 2.32 4.32 3 5 C2.67 5.66 2.34 6.32 2 7 C2.28112064 9.00800456 2.61067967 11.01014051 3 13 C2.34 13 1.68 13 1 13 C1 12.01 1 11.02 1 10 C0.34 10 -0.32 10 -1 10 C-1.33 11.32 -1.66 12.64 -2 14 C-2.99 13.01 -3.98 12.02 -5 11 C-5.33 12.32 -5.66 13.64 -6 15 C-9.42857143 6.57142857 -9.42857143 6.57142857 -9 2 C-3.375 0 -3.375 0 0 0 Z " fill="#959A87" transform="translate(389,208)"/>
<path d="M0 0 C0.33 0 0.66 0 1 0 C1.01981934 1.31605225 1.03963867 2.63210449 1.06005859 3.98803711 C1.13652535 8.90277205 1.22517759 13.81722668 1.31738281 18.73168945 C1.35550365 20.85272662 1.39038501 22.97382473 1.421875 25.0949707 C1.46789444 28.15598223 1.525826 31.21658034 1.5859375 34.27734375 C1.59748871 35.21521225 1.60903992 36.15308075 1.62094116 37.11936951 C1.45710654 46.66475492 1.45710654 46.66475492 5 55 C5.07179964 56.51928038 5.08392007 58.04167482 5.0625 59.5625 C5.05347656 60.38878906 5.04445313 61.21507812 5.03515625 62.06640625 C5.02355469 62.70449219 5.01195313 63.34257812 5 64 C-0.32731709 54.07823188 -0.62703469 42.76904561 -1.13574219 31.76879883 C-1.25160747 29.27794275 -1.38621224 26.78859071 -1.5234375 24.29882812 C-1.60523982 22.71620094 -1.68600886 21.13351992 -1.765625 19.55078125 C-1.80512268 18.80613113 -1.84462036 18.06148102 -1.88531494 17.29426575 C-1.96401355 15.53085172 -1.98771714 13.76512652 -2 12 C-1.67 11.67 -1.34 11.34 -1 11 C-0.76636119 9.15108054 -0.58696365 7.29511969 -0.4375 5.4375 C-0.35371094 4.42558594 -0.26992187 3.41367188 -0.18359375 2.37109375 C-0.12300781 1.58863281 -0.06242187 0.80617187 0 0 Z " fill="#E8E7E2" transform="translate(95,232)"/>
<path d="M0 0 C2.64 0.66 5.28 1.32 8 2 C8 2.66 8 3.32 8 4 C6.68 4 5.36 4 4 4 C4.495 4.45375 4.99 4.9075 5.5 5.375 C7 7 7 7 7 9 C5.35 9 3.7 9 2 9 C2.57344937 11.86724686 2.8614515 12.8614515 5 15 C-2.875 14.125 -2.875 14.125 -4 13 C-3.95969788 8.03276399 -3.65587458 3.65587458 0 0 Z " fill="#D1D4C0" transform="translate(115,204)"/>
<path d="M0 0 C2.04763347 2.09595521 3.65635809 4.39870926 5 7 C4.8125 9.9375 4.8125 9.9375 4 12 C3.01 11.34 2.02 10.68 1 10 C0.01 11.485 0.01 11.485 -1 13 C-2.65 12.67 -4.3 12.34 -6 12 C-5.67 9.69 -5.34 7.38 -5 5 C-5.99 5 -6.98 5 -8 5 C-8 4.34 -8 3.68 -8 3 C-2.25 0 -2.25 0 0 0 Z " fill="#959A87" transform="translate(383,194)"/>
<path d="M0 0 C4.42857143 5.14285714 4.42857143 5.14285714 5 9 C3.35 9 1.7 9 0 9 C-0.66 10.65 -1.32 12.3 -2 14 C-5.08089673 11.22719294 -6.68775452 8.93673644 -8 5 C-5 3 -5 3 -1 3 C-0.67 2.01 -0.34 1.02 0 0 Z " fill="#A2A896" transform="translate(176,129)"/>
<path d="M0 0 C1.3125 2.5625 1.3125 2.5625 2 5 C2.66 4.34 3.32 3.68 4 3 C3.67 5.31 3.34 7.62 3 10 C2.01 10 1.02 10 0 10 C-0.66 8.68 -1.32 7.36 -2 6 C-2.33 6.99 -2.66 7.98 -3 9 C-4.98 9 -6.96 9 -9 9 C-9.33 7.35 -9.66 5.7 -10 4 C-9.01 3.67 -8.02 3.34 -7 3 C-7.66 2.67 -8.32 2.34 -9 2 C-9 1.34 -9 0.68 -9 0 C-5.69183862 -1.10272046 -3.29888363 -1.21537818 0 0 Z " fill="#A0A390" transform="translate(286,113)"/>
<path d="M0 0 C0.515625 0.2475 1.03125 0.495 1.5625 0.75 C1.90957158 6.04284165 1.90957158 6.04284165 1.5625 8.75 C-0.25 10.75 -0.25 10.75 -2.4375 11.75 C-3.4275 11.75 -4.4175 11.75 -5.4375 11.75 C-5.7675 9.44 -6.0975 7.13 -6.4375 4.75 C-7.4275 4.42 -8.4175 4.09 -9.4375 3.75 C-3.0375 -0.31153846 -3.0375 -0.31153846 0 0 Z " fill="#A7AD9A" transform="translate(187.4375,124.25)"/>
<path d="M0 0 C0.66 0.33 1.32 0.66 2 1 C2 1.66 2 2.32 2 3 C3.65 2.67 5.3 2.34 7 2 C8.00821159 4.68856424 8.22736824 6.41703215 7.17578125 9.11328125 C6.16880414 11.10250271 5.08837344 13.05412021 4 15 C1.36 14.01 -1.28 13.02 -4 12 C-4 10.35 -4 8.7 -4 7 C-3.01 6.67 -2.02 6.34 -1 6 C-1.33 7.32 -1.66 8.64 -2 10 C-1.34 10 -0.68 10 0 10 C0 9.34 0 8.68 0 8 C0.66 8 1.32 8 2 8 C2 9.32 2 10.64 2 12 C2.66 12 3.32 12 4 12 C4.309375 11.05125 4.61875 10.1025 4.9375 9.125 C6 6 6 6 7 4 C6.4225 4.350625 5.845 4.70125 5.25 5.0625 C2.64198224 6.14917407 1.60582371 5.93065133 -1 5 C-0.67 3.35 -0.34 1.7 0 0 Z " fill="#CED2C0" transform="translate(120,190)"/>
<path d="M0 0 C3.25543229 0.34879632 4.01873107 1.02133261 6.25 3.5625 C6.8275 4.366875 7.405 5.17125 8 6 C7.21625 6.61875 6.4325 7.2375 5.625 7.875 C3.03162353 9.89858661 3.03162353 9.89858661 1 12 C0.67 11.34 0.34 10.68 0 10 C-2.02463255 9.34786708 -2.02463255 9.34786708 -4 9 C-2.80100302 5.9168649 -1.52299523 2.93720508 0 0 Z " fill="#A1A692" transform="translate(316,125)"/>
<path d="M0 0 C3 0.25 3 0.25 5 2.25 C4.8125 4.75 4.8125 4.75 4 7.25 C1 9.25 1 9.25 -1.625 8.9375 C-4 8.25 -4 8.25 -5 7.25 C-5.1875 4.8125 -5.1875 4.8125 -5 2.25 C-3 0.25 -3 0.25 0 0 Z " fill="#DCE2CE" transform="translate(376,185.75)"/>
<path d="M0 0 C0 0.66 0 1.32 0 2 C-0.99 2 -1.98 2 -3 2 C-3 2.66 -3 3.32 -3 4 C-1.35 4.33 0.3 4.66 2 5 C1.67 6.65 1.34 8.3 1 10 C-0.65 10.33 -2.3 10.66 -4 11 C-5.65 8.69 -7.3 6.38 -9 4 C-8 2 -8 2 -5.625 0.875 C-3 0 -3 0 0 0 Z " fill="#9A9E8A" transform="translate(207,116)"/>
<path d="M0 0 C1.12591553 0.00523682 2.25183105 0.01047363 3.41186523 0.01586914 C4.62680664 0.0190918 5.84174805 0.02231445 7.09350586 0.02563477 C8.37290039 0.03401367 9.65229492 0.04239258 10.97045898 0.05102539 C12.2537207 0.05553711 13.53698242 0.06004883 14.85913086 0.06469727 C18.04211921 0.07652994 21.22501661 0.09301471 24.40795898 0.11352539 C24.07795898 2.09352539 23.74795898 4.07352539 23.40795898 6.11352539 C22.74795898 6.11352539 22.08795898 6.11352539 21.40795898 6.11352539 C21.40795898 4.46352539 21.40795898 2.81352539 21.40795898 1.11352539 C13.81795898 1.11352539 6.22795898 1.11352539 -1.59204102 1.11352539 C0.66556004 6.82020735 0.66556004 6.82020735 5.40795898 10.11352539 C8.43992983 10.43401895 11.37219735 10.35162434 14.40795898 10.11352539 C11.2641654 12.20938778 9.24117113 12.70942545 5.47827148 12.63305664 C2.13538051 11.79418023 0.60496754 9.67265347 -1.46313477 7.03540039 C-2.63685727 5.0372292 -3.24498727 3.40114728 -3.59204102 1.11352539 C-2.59204102 0.11352539 -2.59204102 0.11352539 0 0 Z " fill="#6BC763" transform="translate(153.592041015625,253.886474609375)"/>
<path d="M0 0 C2.625 0.25 2.625 0.25 4.5 1.4375 C5.625 3.25 5.625 3.25 5.375 5.875 C4.625 8.25 4.625 8.25 3.625 9.25 C0.79140458 9.5482732 -0.81285378 9.60602594 -3.25 8.0625 C-4.375 6.25 -4.375 6.25 -4.125 3.625 C-3.08273639 0.32449857 -3.08273639 0.32449857 0 0 Z " fill="#DFE3CF" transform="translate(140.375,161.75)"/>
<path d="M0 0 C0.66 0 1.32 0 2 0 C2 0.99 2 1.98 2 3 C4.31 3 6.62 3 9 3 C9 3.99 9 4.98 9 6 C7.68 6 6.36 6 5 6 C4.67 7.65 4.34 9.3 4 11 C4.99 11.33 5.98 11.66 7 12 C3.66666667 11.33333333 0.33333333 10.66666667 -3 10 C-2.49287967 6.28111761 -1.88391785 3.26545761 0 0 Z " fill="#A5A996" transform="translate(301,118)"/>
<path d="M0 0 C2.56695636 0.39491636 4.67123994 0.83561997 7 2 C7 3.98 7 5.96 7 8 C5.02 8.99 5.02 8.99 3 10 C1.02 8.68 -0.96 7.36 -3 6 C-1.125 1.125 -1.125 1.125 0 0 Z " fill="#D6DAC6" transform="translate(132,170)"/>
<path d="M0 0 C3 0 3 0 6 1 C6 1.66 6 2.32 6 3 C7.32 3.66 8.64 4.32 10 5 C8.72530598 7.54938804 7.50840774 7.74579613 5 9 C3.29078411 10.5412312 3.29078411 10.5412312 2 12 C1.34 11.01 0.68 10.02 0 9 C-2.05003955 7.80767387 -2.05003955 7.80767387 -4 7 C-2.68 6.67 -1.36 6.34 0 6 C0 4.02 0 2.04 0 0 Z " fill="#9A9E8B" transform="translate(332,136)"/>
<path d="M0 0 C0.33 1.32 0.66 2.64 1 4 C0.34 4 -0.32 4 -1 4 C-1.2475 4.70125 -1.495 5.4025 -1.75 6.125 C-3.16197241 9.37253654 -4.9800997 12.11620387 -7 15 C-7.82951172 16.2375 -7.82951172 16.2375 -8.67578125 17.5 C-9.57876953 18.8303125 -9.57876953 18.8303125 -10.5 20.1875 C-11.35078125 21.44626953 -11.35078125 21.44626953 -12.21875 22.73046875 C-13.96759508 24.95871216 -15.66116651 26.42539061 -18 28 C-17.00954616 25.86671482 -16.02816446 24.03551171 -14.5625 22.1875 C-12.78317683 19.87511518 -12.78317683 19.87511518 -11.5 16.3125 C-11.005 15.219375 -10.51 14.12625 -10 13 C-9.01 12.67 -8.02 12.34 -7 12 C-6.12472786 10.26363174 -6.12472786 10.26363174 -5.5625 8.1875 C-4.34846843 4.5906086 -2.97863064 2.46507364 0 0 Z " fill="#D4D5CC" transform="translate(388,327)"/>
<path d="M0 0 C0.66 0.33 1.32 0.66 2 1 C-6.30525602 10.55488945 -6.30525602 10.55488945 -11.1875 14.625 C-14.61606356 17.49463272 -17.09949106 20.59012043 -19.578125 24.30078125 C-21.19935516 26.23824037 -22.69081196 27.02796999 -25 28 C-20.19695178 17.16863615 -8.32319679 8.21664093 0 0 Z " fill="#BABBB2" transform="translate(151,133)"/>
<path d="M0 0 C1.32 0 2.64 0 4 0 C6 3 6 3 5.6875 5.625 C5 8 5 8 4 9 C1.5 9.125 1.5 9.125 -1 9 C-2 8 -2 8 -2.1875 5.0625 C-2 2 -2 2 0 0 Z " fill="#E2E8DC" transform="translate(315,321)"/>
<path d="M0 0 C3.53571429 0.53571429 3.53571429 0.53571429 5 2 C5.125 5 5.125 5 5 8 C4 9 4 9 1.5 9.125 C-1 9 -1 9 -2 8 C-2.1875 5.0625 -2.1875 5.0625 -2 2 C-1.34 1.34 -0.68 0.68 0 0 Z " fill="#EDF2E8" transform="translate(234,321)"/>
<path d="M0 0 C1.67542976 0.28604898 3.34385343 0.61781233 5 1 C4.67 2.32 4.34 3.64 4 5 C0.58860997 6.09651823 -2.20655581 5.94215473 -5.75 5.5625 C-6.73484375 5.46066406 -7.7196875 5.35882813 -8.734375 5.25390625 C-9.48203125 5.17011719 -10.2296875 5.08632813 -11 5 C-10.67 4.34 -10.34 3.68 -10 3 C-7.96875 2.40234375 -7.96875 2.40234375 -5.5 1.9375 C-2.46226779 1.54135157 -2.46226779 1.54135157 0 0 Z " fill="#C2D2BF" transform="translate(231,254)"/>
<path d="M0 0 C1.32 0.33 2.64 0.66 4 1 C3.67 2.32 3.34 3.64 3 5 C3.99 5 4.98 5 6 5 C6.33 6.32 6.66 7.64 7 9 C4.36 9 1.72 9 -1 9 C-2.0326802 6.21176345 -2.04509293 5.1322726 -1.0625 2.25 C-0.711875 1.5075 -0.36125 0.765 0 0 Z " fill="#DDE2DA" transform="translate(286,321)"/>
<path d="M0 0 C0.33 0.66 0.66 1.32 1 2 C1.99 2.33 2.98 2.66 4 3 C4.71706982 4.98248715 5.38290413 6.98415349 6 9 C6.66 9.66 7.32 10.32 8 11 C0.125 10.125 0.125 10.125 -1 9 C-0.91062197 7.47480724 -0.75462854 5.95318071 -0.5625 4.4375 C-0.46066406 3.61121094 -0.35882813 2.78492188 -0.25390625 1.93359375 C-0.17011719 1.29550781 -0.08632812 0.65742188 0 0 Z " fill="#A6A997" transform="translate(112,208)"/>
<path d="M0 0 C1.32 0.33 2.64 0.66 4 1 C5.52164099 3.89111788 6 5.71823412 6 9 C3.03 8.505 3.03 8.505 0 8 C0 8.66 0 9.32 0 10 C-0.66 10 -1.32 10 -2 10 C-1.34 6.7 -0.68 3.4 0 0 Z " fill="#D2D7C3" transform="translate(239,109)"/>
<path d="M0 0 C2.86001033 1.28207359 5.07039412 2.49151236 7 5 C7 6.32 7 7.64 7 9 C3.75 9.75 3.75 9.75 0 10 C-2.4375 8.1875 -2.4375 8.1875 -4 6 C-4 5.34 -4 4.68 -4 4 C-1.33333333 5.33333333 1.33333333 6.66666667 4 8 C3.525625 7.236875 3.05125 6.47375 2.5625 5.6875 C1 3 1 3 0 0 Z " fill="#CFD3C1" transform="translate(146,153)"/>
<path d="M0 0 C-0.45822468 3.46941546 -0.89131683 6.67395049 -2 10 C-2.66 10 -3.32 10 -4 10 C-4.66 8.68 -5.32 7.36 -6 6 C-6.99 6 -7.98 6 -9 6 C-8 3 -8 3 -5.625 1.3125 C-3 0 -3 0 0 0 Z " fill="#D7DCC9" transform="translate(346,144)"/>
<path d="M0 0 C0.763125 0.309375 1.52625 0.61875 2.3125 0.9375 C4.18789677 1.67893593 6.08684652 2.36228217 8 3 C7.67 3.99 7.34 4.98 7 6 C5.68 5.67 4.36 5.34 3 5 C3 5.99 3 6.98 3 8 C3.99 8.33 4.98 8.66 6 9 C3 10 3 10 -0.1875 8.5625 C-1.115625 8.046875 -2.04375 7.53125 -3 7 C-3 6.34 -3 5.68 -3 5 C-0.525 5.495 -0.525 5.495 2 6 C1.34 4.02 0.68 2.04 0 0 Z " fill="#D6DAC9" transform="translate(125,181)"/>
<path d="M0 0 C0.66 0 1.32 0 2 0 C2 2.64 2 5.28 2 8 C2.99 8 3.98 8 5 8 C5.33 5.36 5.66 2.72 6 0 C6.66 0 7.32 0 8 0 C8.1953125 6.0546875 8.1953125 6.0546875 8 8 C7.34 8.66 6.68 9.32 6 10 C1.44444444 9.44444444 1.44444444 9.44444444 0 8 C-0.14115161 5.32941149 -0.04247107 2.67567762 0 0 Z " fill="#D7DCC9" transform="translate(247,109)"/>
<path d="M0 0 C0 0.99 0 1.98 0 3 C-0.99 3.66 -1.98 4.32 -3 5 C-3.53109375 4.68289063 -4.0621875 4.36578125 -4.609375 4.0390625 C-7.54535848 2.7629651 -10.06174329 2.58292979 -13.25 2.375 C-14.32765625 2.30023438 -15.4053125 2.22546875 -16.515625 2.1484375 C-17.33546875 2.09945313 -18.1553125 2.05046875 -19 2 C-19 1.67 -19 1.34 -19 1 C-17.95199219 0.90912109 -17.95199219 0.90912109 -16.8828125 0.81640625 C-15.97273437 0.73261719 -15.06265625 0.64882813 -14.125 0.5625 C-13.22007812 0.48128906 -12.31515625 0.40007812 -11.3828125 0.31640625 C-3.99087591 -0.66514599 -3.99087591 -0.66514599 0 0 Z " fill="#DCEBD8" transform="translate(239,282)"/>
<path d="M0 0 C1.65 0.33 3.3 0.66 5 1 C5.33 1.99 5.66 2.98 6 4 C5.01 4 4.02 4 3 4 C2.67 5.32 2.34 6.64 2 8 C0.35 8 -1.3 8 -3 8 C-3.33 6.68 -3.66 5.36 -4 4 C-3.34 4 -2.68 4 -2 4 C-2 4.66 -2 5.32 -2 6 C-1.34 6 -0.68 6 0 6 C0 4.02 0 2.04 0 0 Z " fill="#CED1BE" transform="translate(348,150)"/>
<path d="M0 0 C0.99 0.33 1.98 0.66 3 1 C2.01 1.66 1.02 2.32 0 3 C0.33 4.32 0.66 5.64 1 7 C2.32 7.33 3.64 7.66 5 8 C5 7.01 5 6.02 5 5 C4.01 5.33 3.02 5.66 2 6 C2.66 4.68 3.32 3.36 4 2 C4.99 2.66 5.98 3.32 7 4 C6.125 8.875 6.125 8.875 5 10 C2.5625 10.1875 2.5625 10.1875 0 10 C-2 8 -2 8 -2.25 5 C-2 2 -2 2 0 0 Z " fill="#D8DCC9" transform="translate(153,146)"/>
<path d="M0 0 C3.35620271 1.38877354 5.07298728 2.91677965 7 6 C7 6.66 7 7.32 7 8 C5.35 7.67 3.7 7.34 2 7 C2.33 8.32 2.66 9.64 3 11 C-0.82946843 9.54744301 -2.12050295 7.57104439 -4 4 C-2.68 4.33 -1.36 4.66 0 5 C0 4.01 0 3.02 0 2 C0 1.34 0 0.68 0 0 Z " fill="#DCE0CD" transform="translate(161,139)"/>
<path d="M0 0 C0.99 0 1.98 0 3 0 C3.66 1.65 4.32 3.3 5 5 C5.66 4.34 6.32 3.68 7 3 C6.67 5.31 6.34 7.62 6 10 C5.01 10 4.02 10 3 10 C2.34 8.68 1.68 7.36 1 6 C0.67 6.99 0.34 7.98 0 9 C-0.66 9 -1.32 9 -2 9 C-1.34 6.03 -0.68 3.06 0 0 Z " fill="#D8DCC8" transform="translate(283,113)"/>
<path d="M0 0 C1.65 0.33 3.3 0.66 5 1 C4 4 4 4 3 5 C2.63837971 6.32594105 2.30271961 7.65938457 2 9 C-2.55384615 9.36923077 -2.55384615 9.36923077 -4.8125 7.5 C-5.204375 7.005 -5.59625 6.51 -6 6 C-4 6 -2 6 0 6 C-0.185625 5.38125 -0.37125 4.7625 -0.5625 4.125 C-1 2 -1 2 0 0 Z " fill="#D0D5C2" transform="translate(330,134)"/>
<path d="M0 0 C0.66 0.66 1.32 1.32 2 2 C3.31747324 2.69748583 4.64914193 3.36959957 6 4 C5.01 4.495 5.01 4.495 4 5 C4 6.32 4 7.64 4 9 C2.02 9 0.04 9 -2 9 C-2.185625 8.071875 -2.185625 8.071875 -2.375 7.125 C-2.87197356 4.80879168 -2.87197356 4.80879168 -5 3 C-4.360625 2.87625 -3.72125 2.7525 -3.0625 2.625 C-2.0415625 2.315625 -2.0415625 2.315625 -1 2 C-0.67 1.34 -0.34 0.68 0 0 Z " fill="#356034" transform="translate(250,345)"/>
<path d="M0 0 C0.66 1.32 1.32 2.64 2 4 C5.465 3.505 5.465 3.505 9 3 C7.125 8.75 7.125 8.75 6 11 C5.34 11 4.68 11 4 11 C4 9.68 4 8.36 4 7 C3.34 7 2.68 7 2 7 C2 7.66 2 8.32 2 9 C1.34 9 0.68 9 0 9 C0.33 7.68 0.66 6.36 1 5 C0.34 4.67 -0.32 4.34 -1 4 C-0.67 2.68 -0.34 1.36 0 0 Z " fill="#969A87" transform="translate(118,191)"/>
<path d="M0 0 C0.33 0.66 0.66 1.32 1 2 C3.3140622 2.73075648 5.64828869 3.40138258 8 4 C8.33 5.65 8.66 7.3 9 9 C7.02 9.99 7.02 9.99 5 11 C4.67 10.01 4.34 9.02 4 8 C5.32 8 6.64 8 8 8 C8 7.34 8 6.68 8 6 C7.2575 6 6.515 6 5.75 6 C3.5 6 1.25 6 -1 6 C-1.33 5.34 -1.66 4.68 -2 4 C-1.0625 1.875 -1.0625 1.875 0 0 Z " fill="#9A9F8B" transform="translate(115,200)"/>
<path d="M0 0 C0.33 1.65 0.66 3.3 1 5 C0.34 5 -0.32 5 -1 5 C-1 4.34 -1 3.68 -1 3 C-1.66 3 -2.32 3 -3 3 C-3 3.99 -3 4.98 -3 6 C-3.66 6 -4.32 6 -5 6 C-5 5.34 -5 4.68 -5 4 C-5.66 4 -6.32 4 -7 4 C-7.33 5.32 -7.66 6.64 -8 8 C-9 7 -9 7 -9.0625 4.4375 C-9.041875 3.633125 -9.02125 2.82875 -9 2 C-3.375 0 -3.375 0 0 0 Z " fill="#D7DCC9" transform="translate(389,208)"/>
<path d="M0 0 C2.64 0 5.28 0 8 0 C8 0.66 8 1.32 8 2 C7.01 2 6.02 2 5 2 C5 4.64 5 7.28 5 10 C4.01 10 3.02 10 2 10 C1.77213542 7.98177083 1.54427083 5.96354167 1.31640625 3.9453125 C1.08707039 1.92595684 1.08707039 1.92595684 0 0 Z " fill="#CACFBB" transform="translate(256,109)"/>
<path d="M0 0 C0.66 0 1.32 0 2 0 C2.67467562 1.74692795 3.33944156 3.49768525 4 5.25 C4.556875 6.71179688 4.556875 6.71179688 5.125 8.203125 C6 11 6 11 6 15 C5.34 15 4.68 15 4 15 C3.32243118 13.44219668 2.65840543 11.87849904 2 10.3125 C1.62875 9.44238281 1.2575 8.57226562 0.875 7.67578125 C-0.01870488 4.9427998 -0.16449676 2.85299066 0 0 Z " fill="#E0E9D9" transform="translate(115,294)"/>
<path d="M0 0 C1.32 0.66 2.64 1.32 4 2 C4 2.66 4 3.32 4 4 C4.66 4.33 5.32 4.66 6 5 C5.16855469 5.39832031 5.16855469 5.39832031 4.3203125 5.8046875 C3.59585937 6.15789062 2.87140625 6.51109375 2.125 6.875 C1.40570313 7.22304687 0.68640625 7.57109375 -0.0546875 7.9296875 C-2.15135019 8.96557543 -2.15135019 8.96557543 -4 11 C-4.33 10.01 -4.66 9.02 -5 8 C-1.83636364 3.41818182 -1.83636364 3.41818182 1 2 C0.67 1.34 0.34 0.68 0 0 Z " fill="#9A9E8B" transform="translate(340,139)"/>
<path d="M0 0 C1.65 0 3.3 0 5 0 C2.49987316 2.08343904 -0.14195318 3.71433305 -3 5.25 C-3.66 5.60578125 -4.32 5.9615625 -5 6.328125 C-7.39841683 7.13384316 -8.64518377 6.81998065 -11 6 C-10.34 5.01 -9.68 4.02 -9 3 C-5.875 2.8125 -5.875 2.8125 -3 3 C-2.67 2.34 -2.34 1.68 -2 1 C-1.34 1.33 -0.68 1.66 0 2 C0 1.34 0 0.68 0 0 Z " fill="#BFC2B8" transform="translate(318,393)"/>
<path d="M0 0 C0.33 0.66 0.66 1.32 1 2 C1.99 2 2.98 2 4 2 C4 5.63 4 9.26 4 13 C3.67 13 3.34 13 3 13 C2.67 10.69 2.34 8.38 2 6 C0.68 7.32 -0.64 8.64 -2 10 C-2.6875 8.375 -2.6875 8.375 -3 6 C-1.5625 2.75 -1.5625 2.75 0 0 Z " fill="#D8E6D2" transform="translate(350,297)"/>
<path d="M0 0 C0.33 0 0.66 0 1 0 C1.38063221 2.3260857 1.71269945 4.66055264 2 7 C1.67 7.33 1.34 7.66 1 8 C0.80683287 10.02825491 0.61674212 12.05723921 0.4765625 14.08984375 C0 16 0 16 -3 18 C-2.57045059 11.74892565 -1.98598493 5.95795479 0 0 Z " fill="#D2D5CD" transform="translate(99,214)"/>
<path d="M0 0 C1.32 0.33 2.64 0.66 4 1 C4.66 3.31 5.32 5.62 6 8 C4.02 7.34 2.04 6.68 0 6 C0 6.66 0 7.32 0 8 C-0.66 8 -1.32 8 -2 8 C-1.34 5.36 -0.68 2.72 0 0 Z " fill="#DFE5DC" transform="translate(247,322)"/>
<path d="M0 0 C0.33 1.65 0.66 3.3 1 5 C0.34 5 -0.32 5 -1 5 C-1 4.01 -1 3.02 -1 2 C-1.66 2 -2.32 2 -3 2 C-3.33 3.32 -3.66 4.64 -4 6 C-4.99 5.01 -5.98 4.02 -7 3 C-7.33 4.32 -7.66 5.64 -8 7 C-8.33 5.35 -8.66 3.7 -9 2 C-5.86501708 0.14223235 -3.62528568 -0.20140476 0 0 Z " fill="#DAE0CD" transform="translate(391,216)"/>
<path d="M0 0 C1.32 0.33 2.64 0.66 4 1 C4.33 2.65 4.66 4.3 5 6 C3.68 6.33 2.36 6.66 1 7 C1.66 6.67 2.32 6.34 3 6 C3 5.01 3 4.02 3 3 C0.9754262 4.93254772 -0.42105792 6.63158688 -2 9 C-2.66 9 -3.32 9 -4 9 C-2.80100302 5.9168649 -1.52299523 2.93720508 0 0 Z " fill="#D8DDCA" transform="translate(316,125)"/>
<path d="M0 0 C0.66 0 1.32 0 2 0 C2 1.32 2 2.64 2 4 C3.32 4 4.64 4 6 4 C6.33 3.01 6.66 2.02 7 1 C7 3.97 7 6.94 7 10 C6.34 10 5.68 10 5 10 C5 8.68 5 7.36 5 6 C3.68 6 2.36 6 1 6 C0.67 6.99 0.34 7.98 0 9 C0 6.03 0 3.06 0 0 Z " fill="#DCE2CE" transform="translate(265,110)"/>
<path d="M0 0 C1.32 0.33 2.64 0.66 4 1 C4.66 3.31 5.32 5.62 6 8 C5.34 8 4.68 8 4 8 C4 7.34 4 6.68 4 6 C2.68 6 1.36 6 0 6 C0 6.66 0 7.32 0 8 C-0.66 8 -1.32 8 -2 8 C-1.34 5.36 -0.68 2.72 0 0 Z " fill="#DEE4DC" transform="translate(328,322)"/>
<path d="M0 0 C1.33333333 2 2.66666667 4 4 6 C6.56282742 6.72965366 6.56282742 6.72965366 9 7 C9 7.33 9 7.66 9 8 C3.06 8.495 3.06 8.495 -3 9 C-2.01 6.03 -1.02 3.06 0 0 Z " fill="#8F9988" transform="translate(256,254)"/>
<path d="M0 0 C0.66 0 1.32 0 2 0 C1 2 0 4 -1 6 C0.32 6.66 1.64 7.32 3 8 C0.525 9.485 0.525 9.485 -2 11 C-3.125 9.3125 -3.125 9.3125 -4 7 C-3.1144582 3.9006037 -2.28724116 2.28724116 0 0 Z " fill="#DFEDDB" transform="translate(239,251)"/>
<path d="M0 0 C0 0.66 0 1.32 0 2 C-0.99 2 -1.98 2 -3 2 C-3 2.66 -3 3.32 -3 4 C-1.35 4.33 0.3 4.66 2 5 C1.67 6.65 1.34 8.3 1 10 C-0.32 9.67 -1.64 9.34 -3 9 C-2.01 9 -1.02 9 0 9 C0 8.01 0 7.02 0 6 C-1.65 5.67 -3.3 5.34 -5 5 C-5 3.68 -5 2.36 -5 1 C-3 0 -3 0 0 0 Z " fill="#D9DDC9" transform="translate(207,116)"/>
<path d="M0 0 C0 2.64 0 5.28 0 8 C1.32 7.67 2.64 7.34 4 7 C2.6875 8.5 2.6875 8.5 1 10 C0.01 10 -0.98 10 -2 10 C-2.33 7.69 -2.66 5.38 -3 3 C-3.99 2.67 -4.98 2.34 -6 2 C-3 0 -3 0 0 0 Z " fill="#DBDFCE" transform="translate(184,126)"/>
<path d="M0 0 C0.81210938 0.29003906 1.62421875 0.58007812 2.4609375 0.87890625 C3.27820313 1.16636719 4.09546875 1.45382813 4.9375 1.75 C5.56398437 1.97816406 6.19046875 2.20632812 6.8359375 2.44140625 C5.8459375 2.93640625 5.8459375 2.93640625 4.8359375 3.44140625 C4.18380458 5.4660388 4.18380458 5.4660388 3.8359375 7.44140625 C3.5059375 6.45140625 3.1759375 5.46140625 2.8359375 4.44140625 C0.8559375 4.77140625 -1.1240625 5.10140625 -3.1640625 5.44140625 C-3.4940625 3.79140625 -3.8240625 2.14140625 -4.1640625 0.44140625 C-2.1640625 -0.55859375 -2.1640625 -0.55859375 0 0 Z " fill="#A2A694" transform="translate(124.1640625,188.55859375)"/>
<path d="M0 0 C2.97 0.495 2.97 0.495 6 1 C6 3.64 6 6.28 6 9 C6.66 9.33 7.32 9.66 8 10 C7.01 10.33 6.02 10.66 5 11 C4.16151196 9.54462432 3.32936066 8.08559627 2.5 6.625 C1.80390625 5.40683594 1.80390625 5.40683594 1.09375 4.1640625 C0 2 0 2 0 0 Z " fill="#919585" transform="translate(176,127)"/>
<path d="M0 0 C0.66 0.33 1.32 0.66 2 1 C0.37982158 2.33918806 -1.24629343 3.6711969 -2.875 5 C-4.23238281 6.11375 -4.23238281 6.11375 -5.6171875 7.25 C-8 9 -8 9 -10 9 C-9.67 7.68 -9.34 6.36 -9 5 C-7.35 4.67 -5.7 4.34 -4 4 C-3.67 3.01 -3.34 2.02 -3 1 C-2.01 0.67 -1.02 0.34 0 0 Z " fill="#C2C4BA" transform="translate(348,375)"/>
<path d="M0 0 C2.97 0 5.94 0 9 0 C9 0.99 9 1.98 9 3 C4.545 3.495 4.545 3.495 0 4 C0 2.68 0 1.36 0 0 Z " fill="#DEEEDB" transform="translate(221,253)"/>
<path d="M0 0 C0.99 0.33 1.98 0.66 3 1 C3.6875 3.0625 3.6875 3.0625 4 5 C2.35 5.66 0.7 6.32 -1 7 C-1.33 5.02 -1.66 3.04 -2 1 C-1.34 0.67 -0.68 0.34 0 0 Z " fill="#3F703E" transform="translate(159,243)"/>
<path d="M0 0 C0.66 1.65 1.32 3.3 2 5 C1.34 5 0.68 5 0 5 C0 4.34 0 3.68 0 3 C-0.99 3 -1.98 3 -3 3 C-2.67 4.32 -2.34 5.64 -2 7 C-2.66 7 -3.32 7 -4 7 C-4 6.34 -4 5.68 -4 5 C-5.32 5 -6.64 5 -8 5 C-8 4.34 -8 3.68 -8 3 C-2.25 0 -2.25 0 0 0 Z " fill="#D9DECA" transform="translate(383,194)"/>
<path d="M0 0 C0.66 0.33 1.32 0.66 2 1 C2 1.66 2 2.32 2 3 C3.65 2.67 5.3 2.34 7 2 C7.33 3.65 7.66 5.3 8 7 C7.01 7 6.02 7 5 7 C5.66 6.01 6.32 5.02 7 4 C6.4225 4.350625 5.845 4.70125 5.25 5.0625 C2.64198224 6.14917407 1.60582371 5.93065133 -1 5 C-0.67 3.35 -0.34 1.7 0 0 Z " fill="#DADFCC" transform="translate(120,190)"/>
<path d="M0 0 C0.763125 0.20625 1.52625 0.4125 2.3125 0.625 C2.6425 2.275 2.9725 3.925 3.3125 5.625 C2.6525 4.635 1.9925 3.645 1.3125 2.625 C-1.27130177 2.37469023 -1.27130177 2.37469023 -3.6875 2.625 C-3.3575 4.605 -3.0275 6.585 -2.6875 8.625 C-3.3475 8.625 -4.0075 8.625 -4.6875 8.625 C-5.0175 6.315 -5.3475 4.005 -5.6875 1.625 C-2.6875 -0.375 -2.6875 -0.375 0 0 Z " fill="#DAE1CF" transform="translate(372.6875,178.375)"/>
<path d="M0 0 C1.67542976 0.28604898 3.34385343 0.61781233 5 1 C3.68 1.33 2.36 1.66 1 2 C1 2.66 1 3.32 1 4 C1.99 4.33 2.98 4.66 4 5 C2.68 5.33 1.36 5.66 0 6 C0 6.99 0 7.98 0 9 C0.99 9.33 1.98 9.66 3 10 C1.35 10 -0.3 10 -2 10 C-1.85950482 8.52031676 -1.71245174 7.04125484 -1.5625 5.5625 C-1.48128906 4.73878906 -1.40007812 3.91507812 -1.31640625 3.06640625 C-1 1 -1 1 0 0 Z " fill="#D9DECA" transform="translate(276,111)"/>
<path d="M0 0 C0.78375 0.04125 1.5675 0.0825 2.375 0.125 C2.375 1.115 2.375 2.105 2.375 3.125 C1.055 3.125 -0.265 3.125 -1.625 3.125 C-1.955 4.775 -2.285 6.425 -2.625 8.125 C-1.635 8.455 -0.645 8.785 0.375 9.125 C-1.275 8.795 -2.925 8.465 -4.625 8.125 C-4.75 5.25 -4.75 5.25 -4.625 2.125 C-2.625 0.125 -2.625 0.125 0 0 Z " fill="#DBDFCC" transform="translate(307.625,120.875)"/>
<path d="M0 0 C0.66 0.33 1.32 0.66 2 1 C1.01 2.485 1.01 2.485 0 4 C0.66 4.33 1.32 4.66 2 5 C-1 7 -1 7 -3.1875 6.625 C-3.785625 6.41875 -4.38375 6.2125 -5 6 C-4.75 4.125 -4.75 4.125 -4 2 C-2.0625 0.6875 -2.0625 0.6875 0 0 Z " fill="#DDEBD9" transform="translate(334,274)"/>
<path d="M0 0 C-0.6875 2.375 -0.6875 2.375 -2 5 C-4.5 6.25 -4.5 6.25 -7 7 C-7.99 7.495 -7.99 7.495 -9 8 C-9.66 7.34 -10.32 6.68 -11 6 C-9.54550599 4.9944239 -8.08627557 3.99569565 -6.625 3 C-5.40683594 2.1646875 -5.40683594 2.1646875 -4.1640625 1.3125 C-2 0 -2 0 0 0 Z " fill="#A7A9A0" transform="translate(174,119)"/>
<path d="M0 0 C2.0625 0.4375 2.0625 0.4375 4 1 C3.01 1 2.02 1 1 1 C1 1.66 1 2.32 1 3 C2.32 3.33 3.64 3.66 5 4 C4.67 5.32 4.34 6.64 4 8 C2.35 8 0.7 8 -1 8 C-1 7.34 -1 6.68 -1 6 C-0.34 5.67 0.32 5.34 1 5 C0.34 3.68 -0.32 2.36 -1 1 C-0.67 0.67 -0.34 0.34 0 0 Z " fill="#DFE6DB" transform="translate(259,322)"/>
<path d="M0 0 C0.33 0 0.66 0 1 0 C1.66 3.63 2.32 7.26 3 11 C2.34 11 1.68 11 1 11 C0.67 11.99 0.34 12.98 0 14 C-0.19532961 12.2300132 -0.38098882 10.45895721 -0.5625 8.6875 C-0.66691406 7.70136719 -0.77132812 6.71523438 -0.87890625 5.69921875 C-1 3 -1 3 0 0 Z " fill="#D5DCCB" transform="translate(114,283)"/>
<path d="M0 0 C-0.33 1.32 -0.66 2.64 -1 4 C-1.33 3.34 -1.66 2.68 -2 2 C-2.99 2.495 -2.99 2.495 -4 3 C-4 3.66 -4 4.32 -4 5 C-3.34 5 -2.68 5 -2 5 C-1.67 6.65 -1.34 8.3 -1 10 C-4.08089673 7.22719294 -5.68775452 4.93673644 -7 1 C-4.53721199 -0.231394 -2.7204945 -0.07159196 0 0 Z " fill="#DFE7D4" transform="translate(175,133)"/>
<path d="M0 0 C2.83374881 3.20336822 3.5205537 5.78087253 4 10 C3.01 10 2.02 10 1 10 C0.34 9.34 -0.32 8.68 -1 8 C-0.96712417 5.27130593 -0.43602229 2.7033382 0 0 Z " fill="#989D8A" transform="translate(327,131)"/>
<path d="M0 0 C-0.33 1.32 -0.66 2.64 -1 4 C-1.66 3.34 -2.32 2.68 -3 2 C-3.99 3.485 -3.99 3.485 -5 5 C-6.65 4.67 -8.3 4.34 -10 4 C-10 3.34 -10 2.68 -10 2 C-3.375 -1.125 -3.375 -1.125 0 0 Z " fill="#E0E5D2" transform="translate(387,202)"/>
<path d="M0 0 C2.475 0.99 2.475 0.99 5 2 C5 2.99 5 3.98 5 5 C4.401875 5.268125 3.80375 5.53625 3.1875 5.8125 C1.02775192 6.98493467 -0.35790256 8.19369282 -2 10 C-1.45276317 6.62537285 -0.9451 4.91765 1 2 C0.67 1.34 0.34 0.68 0 0 Z " fill="#DDE0CD" transform="translate(336,138)"/>
<path d="M0 0 C3.96 0 7.92 0 12 0 C12 0.66 12 1.32 12 2 C7.545 2.495 7.545 2.495 3 3 C3 2.34 3 1.68 3 1 C2.01 0.67 1.02 0.34 0 0 Z " fill="#DCE4D3" transform="translate(262,394)"/>
<path d="M0 0 C0 1.65 0 3.3 0 5 C-1.65 5.33 -3.3 5.66 -5 6 C-5 5.01 -5 4.02 -5 3 C-5.99 2.34 -6.98 1.68 -8 1 C-2.25 -1.125 -2.25 -1.125 0 0 Z " fill="#8D9587" transform="translate(322,329)"/>
<path d="M0 0 C1.98 0.495 1.98 0.495 4 1 C3.67 2.65 3.34 4.3 3 6 C1.68 5.67 0.36 5.34 -1 5 C-0.67 3.35 -0.34 1.7 0 0 Z " fill="#999F95" transform="translate(234,323)"/>
<path d="M0 0 C1.01731423 2.03462847 2.03134319 4.06660427 3 6.125 C3.97140377 8.16551151 3.97140377 8.16551151 6 10 C4.0625 9.6875 4.0625 9.6875 2 9 C1.67 8.01 1.34 7.02 1 6 C-1.01508358 5.26676204 -1.01508358 5.26676204 -3 5 C-1.125 1.125 -1.125 1.125 0 0 Z " fill="#8C9885" transform="translate(241,252)"/>
<path d="M0 0 C1.65 0 3.3 0 5 0 C5.33 1.65 5.66 3.3 6 5 C4.35 4.67 2.7 4.34 1 4 C0.67 2.68 0.34 1.36 0 0 Z " fill="#989B88" transform="translate(138,164)"/>
<path d="M0 0 C0.66 0 1.32 0 2 0 C2 1.32 2 2.64 2 4 C2.66 4 3.32 4 4 4 C4 4.99 4 5.98 4 7 C2.35 6.67 0.7 6.34 -1 6 C-1.625 4.125 -1.625 4.125 -2 2 C-1.34 1.34 -0.68 0.68 0 0 Z " fill="#9EA38F" transform="translate(154,147)"/>
<path d="M0 0 C0.125 6.75 0.125 6.75 -1 9 C-0.34 9.33 0.32 9.66 1 10 C0.01 10.33 -0.98 10.66 -2 11 C-2 8.36 -2 5.72 -2 3 C-2.99 2.67 -3.98 2.34 -5 2 C-2 0 -2 0 0 0 Z " fill="#DCE4CF" transform="translate(191,122)"/>
<path d="M0 0 C1.98 0.495 1.98 0.495 4 1 C3.01 1.495 3.01 1.495 2 2 C2.99 2.66 3.98 3.32 5 4 C4.67 5.32 4.34 6.64 4 8 C2.68 7.67 1.36 7.34 0 7 C0.99 7 1.98 7 3 7 C3 6.34 3 5.68 3 5 C1.68 4.34 0.36 3.68 -1 3 C-0.67 2.01 -0.34 1.02 0 0 Z " fill="#E7ECE2" transform="translate(340,322)"/>
<path d="M0 0 C0 0.33 0 0.66 0 1 C-1.1446875 1.185625 -1.1446875 1.185625 -2.3125 1.375 C-5.20267136 1.88102792 -5.20267136 1.88102792 -8 4 C-8.99 4.33 -9.98 4.66 -11 5 C-11.66 3.68 -12.32 2.36 -13 1 C-8.59085217 -0.10228696 -4.51617599 -0.07654536 0 0 Z " fill="#DCE8D7" transform="translate(293,220)"/>
<path d="M0 0 C0.33 0 0.66 0 1 0 C1 2.97 1 5.94 1 9 C-0.32 9.33 -1.64 9.66 -3 10 C-3 7.36 -3 4.72 -3 2 C-2.01 3.485 -2.01 3.485 -1 5 C-0.67 3.35 -0.34 1.7 0 0 Z " fill="#949A86" transform="translate(194,120)"/>
<path d="M0 0 C0.33 1.32 0.66 2.64 1 4 C0.34 4 -0.32 4 -1 4 C-1.4021875 5.2065625 -1.4021875 5.2065625 -1.8125 6.4375 C-2.4003125 7.7059375 -2.4003125 7.7059375 -3 9 C-3.99 9.33 -4.98 9.66 -6 10 C-4.79157144 5.56909529 -3.48331435 3.01887244 0 0 Z " fill="#CDCFC5" transform="translate(388,327)"/>
<path d="M0 0 C2.66246807 1.33123403 2.94601652 2.6764378 4.125 5.375 C4.47820312 6.16648438 4.83140625 6.95796875 5.1953125 7.7734375 C6 10 6 10 6 13 C4.68 12.34 3.36 11.68 2 11 C2.04125 10.29875 2.0825 9.5975 2.125 8.875 C1.98331668 5.61628372 1.13265314 3.0440053 0 0 Z " fill="#D3D6CC" transform="translate(391,187)"/>
<path d="M0 0 C1.65 0.33 3.3 0.66 5 1 C4.67 1.99 4.34 2.98 4 4 C2.35 4.33 0.7 4.66 -1 5 C-0.67 3.35 -0.34 1.7 0 0 Z " fill="#939783" transform="translate(374,188)"/>
<path d="M0 0 C1.32 0.66 2.64 1.32 4 2 C4 2.99 4 3.98 4 5 C2.02 5 0.04 5 -2 5 C-2 2 -2 2 0 0 Z " fill="#AFB7A6" transform="translate(220,113)"/>
<path d="M0 0 C2.4375 1.3125 2.4375 1.3125 3.25 3.4375 C3.311875 4.05625 3.37375 4.675 3.4375 5.3125 C-2.3125 3.6875 -2.3125 3.6875 -4.5625 0.3125 C-2.5625 -0.6875 -2.5625 -0.6875 0 0 Z " fill="#B5B9AF" transform="translate(171.5625,385.6875)"/>
<path d="M0 0 C0.66 0.99 1.32 1.98 2 3 C0.68 5.64 -0.64 8.28 -2 11 C-2.66 11 -3.32 11 -4 11 C-3.52269162 9.5410574 -3.04308958 8.08286504 -2.5625 6.625 C-2.29566406 5.81289062 -2.02882813 5.00078125 -1.75390625 4.1640625 C-1 2 -1 2 0 0 Z " fill="#BABDB3" transform="translate(110,185)"/>
<path d="M0 0 C2.97 0.495 2.97 0.495 6 1 C5.01 1.33 4.02 1.66 3 2 C2.67 4.31 2.34 6.62 2 9 C1.34 9 0.68 9 0 9 C0 6.03 0 3.06 0 0 Z " fill="#D9DFCC" transform="translate(293,116)"/>
<path d="M0 0 C-0.33 1.32 -0.66 2.64 -1 4 C-2.32 4 -3.64 4 -5 4 C-5.33 2.68 -5.66 1.36 -6 0 C-3.50907189 -1.24546405 -2.58919267 -0.7767578 0 0 Z " fill="#446744" transform="translate(242,348)"/>
<path d="M0 0 C1.32 0.33 2.64 0.66 4 1 C3.67 2.65 3.34 4.3 3 6 C2.01 6 1.02 6 0 6 C0 4.02 0 2.04 0 0 Z " fill="#969A90" transform="translate(315,323)"/>
<path d="M0 0 C0.33 0 0.66 0 1 0 C1.3125 3.3125 1.3125 3.3125 1 7 C-1.5 8.9375 -1.5 8.9375 -4 10 C-3.67 8.35 -3.34 6.7 -3 5 C-2.01 4.67 -1.02 4.34 0 4 C0 2.68 0 1.36 0 0 Z " fill="#D1DAC8" transform="translate(271,250)"/>
<path d="M0 0 C2.3125 -0.3125 2.3125 -0.3125 5 0 C6.8125 2.5 6.8125 2.5 8 5 C7.01 5 6.02 5 5 5 C5 4.34 5 3.68 5 3 C3.68 3 2.36 3 1 3 C0.67 2.01 0.34 1.02 0 0 Z " fill="#7EBA7A" transform="translate(151,246)"/>
<path d="M0 0 C1.485 0.99 1.485 0.99 3 2 C3.1875 5.125 3.1875 5.125 3 8 C2.34 8 1.68 8 1 8 C1 7.34 1 6.68 1 6 C0.34 6 -0.32 6 -1 6 C-0.67 4.02 -0.34 2.04 0 0 Z " fill="#969A86" transform="translate(345,148)"/>
<path d="M0 0 C2.33944736 0.28730055 4.6739143 0.61936779 7 1 C6.0409375 1.433125 6.0409375 1.433125 5.0625 1.875 C2.84793921 2.82823451 2.84793921 2.82823451 2 5 C1.67 4.67 1.34 4.34 1 4 C0.34 4.66 -0.32 5.32 -1 6 C-1.042721 4.33388095 -1.04063832 2.66617115 -1 1 C-0.67 0.67 -0.34 0.34 0 0 Z " fill="#ACB19E" transform="translate(288,114)"/>
<path d="M0 0 C0.66 0 1.32 0 2 0 C2 0.66 2 1.32 2 2 C2.9590625 2.3403125 2.9590625 2.3403125 3.9375 2.6875 C6 4 6 4 6.75 6.625 C6.8325 7.40875 6.915 8.1925 7 9 C4.03595495 6.19195732 1.55500981 3.81684226 0 0 Z " fill="#BABFB6" transform="translate(122,343)"/>
<path d="M0 0 C0.99 0.33 1.98 0.66 3 1 C2.34 3.31 1.68 5.62 1 8 C0.67 6.68 0.34 5.36 0 4 C-0.66 4 -1.32 4 -2 4 C-2.33 4.66 -2.66 5.32 -3 6 C-2.42655063 3.13275314 -2.1385485 2.1385485 0 0 Z " fill="#E7F7E5" transform="translate(262,277)"/>
<path d="M0 0 C0.33 0.99 0.66 1.98 1 3 C1.99 3 2.98 3 4 3 C4.33 2.34 4.66 1.68 5 1 C5 1.99 5 2.98 5 4 C6.32 4.66 7.64 5.32 9 6 C6.36 5.67 3.72 5.34 1 5 C0.67 3.35 0.34 1.7 0 0 Z " fill="#DFE4D2" transform="translate(111,213)"/>
<path d="M0 0 C1.98 0.495 1.98 0.495 4 1 C4 2.65 4 4.3 4 6 C2.68 5.34 1.36 4.68 0 4 C0 2.68 0 1.36 0 0 Z " fill="#9B9F8A" transform="translate(133,172)"/>
<path d="M0 0 C0.99 0.33 1.98 0.66 3 1 C1.35 2.98 -0.3 4.96 -2 7 C-2.66 6.34 -3.32 5.68 -4 5 C-2.68 3.35 -1.36 1.7 0 0 Z " fill="#E3EAD9" transform="translate(363,338)"/>
<path d="M0 0 C1 2 1 2 0.75 4.0625 C0.5025 4.701875 0.255 5.34125 0 6 C-0.99 6.33 -1.98 6.66 -3 7 C-3.66 6.34 -4.32 5.68 -5 5 C-3.35 3.35 -1.7 1.7 0 0 Z " fill="#8B9785" transform="translate(352,288)"/>
<path d="M0 0 C2.475 0.99 2.475 0.99 5 2 C5 2.66 5 3.32 5 4 C2.5 5.625 2.5 5.625 0 7 C0 4.69 0 2.38 0 0 Z " fill="#808978" transform="translate(266,250)"/>
<path d="M0 0 C2.475 0.495 2.475 0.495 5 1 C5.33 2.32 5.66 3.64 6 5 C4.35 4.67 2.7 4.34 1 4 C0.67 2.68 0.34 1.36 0 0 Z " fill="#4D824A" transform="translate(151,248)"/>
<path d="M0 0 C3.465 1.485 3.465 1.485 7 3 C6.01 3.495 6.01 3.495 5 4 C4.34227572 7.02934491 4.34227572 7.02934491 4 10 C3.67 10 3.34 10 3 10 C3 8.02 3 6.04 3 4 C2.01 3.67 1.02 3.34 0 3 C0 2.01 0 1.02 0 0 Z " fill="#A0A690" transform="translate(136,168)"/>
<path d="M0 0 C0.99 0 1.98 0 3 0 C3 1.98 3 3.96 3 6 C2.01 6.33 1.02 6.66 0 7 C0 4.69 0 2.38 0 0 Z " fill="#8B917D" transform="translate(185,126)"/>
<path d="M0 0 C1.32 0.33 2.64 0.66 4 1 C4 2.32 4 3.64 4 5 C3.01 5.33 2.02 5.66 1 6 C0.01 5.34 -0.98 4.68 -2 4 C-1.34 2.68 -0.68 1.36 0 0 Z " fill="#A0A591" transform="translate(384,203)"/>
<path d="M0 0 C1.32 0.66 2.64 1.32 4 2 C2.68 2 1.36 2 0 2 C0.66 3.65 1.32 5.3 2 7 C0.68 6.67 -0.64 6.34 -2 6 C-1.125 1.125 -1.125 1.125 0 0 Z " fill="#D4DBC6" transform="translate(138,162)"/>
<path d="M0 0 C0.99 0 1.98 0 3 0 C4.42944945 2.35438733 5.08661261 3.48032433 4.625 6.25 C4.41875 6.8275 4.2125 7.405 4 8 C0 2.25 0 2.25 0 0 Z " fill="#B4B8AF" transform="translate(114,330)"/>
<path d="M0 0 C-0.99 1.485 -0.99 1.485 -2 3 C-4.4375 2.625 -4.4375 2.625 -7 2 C-7.33 1.34 -7.66 0.68 -8 0 C-4.71023192 -1.09658936 -3.28696233 -0.79953138 0 0 Z " fill="#8C9386" transform="translate(349,323)"/>
<path d="M0 0 C0.99 0.66 1.98 1.32 3 2 C2.625 4.4375 2.625 4.4375 2 7 C1.01 7.495 1.01 7.495 0 8 C0.061875 7.21625 0.12375 6.4325 0.1875 5.625 C0.125625 4.75875 0.06375 3.8925 0 3 C-0.99 2.34 -1.98 1.68 -3 1 C-2.01 0.67 -1.02 0.34 0 0 Z " fill="#D2D8C4" transform="translate(378,186)"/>
<path d="M0 0 C-0.99 0.66 -1.98 1.32 -3 2 C-5.66666667 0.66666667 -8.33333333 -0.66666667 -11 -2 C-6.74891557 -3.87047715 -3.9091836 -1.87941519 0 0 Z " fill="#A8AD97" transform="translate(150,163)"/>
<path d="M0 0 C0.99 0.33 1.98 0.66 3 1 C2.01 1.66 1.02 2.32 0 3 C0.50603992 5.16874252 0.99983813 6.99967627 2 9 C0.68 8.67 -0.64 8.34 -2 8 C-2.125 5.125 -2.125 5.125 -2 2 C-1.34 1.34 -0.68 0.68 0 0 Z " fill="#DFE4D0" transform="translate(153,146)"/>
<path d="M0 0 C2.31 1.98 4.62 3.96 7 6 C6.01 6.33 5.02 6.66 4 7 C3.67 7.66 3.34 8.32 3 9 C2.01 6.03 1.02 3.06 0 0 Z " fill="#A4A795" transform="translate(157,144)"/>
<path d="M0 0 C4.42857143 5.14285714 4.42857143 5.14285714 5 9 C4.34 9 3.68 9 3 9 C1.68 6.36 0.36 3.72 -1 1 C-0.67 0.67 -0.34 0.34 0 0 Z " fill="#DCE0CF" transform="translate(176,129)"/>
<path d="M0 0 C0.93423645 3.01031744 1.04449911 3.86650268 0 7 C-0.99 7 -1.98 7 -3 7 C-3 5.02 -3 3.04 -3 1 C-2.01 1.495 -2.01 1.495 -1 2 C-0.67 1.34 -0.34 0.68 0 0 Z " fill="#E2E7D3" transform="translate(289,116)"/>
<path d="M0 0 C0.99 0.33 1.98 0.66 3 1 C2.67 2.32 2.34 3.64 2 5 C0.68 4.67 -0.64 4.34 -2 4 C-1.34 2.68 -0.68 1.36 0 0 Z " fill="#3D623C" transform="translate(262,347)"/>
<path d="M0 0 C0.33 0 0.66 0 1 0 C1.1875 3.375 1.1875 3.375 1 7 C0.01 7.66 -0.98 8.32 -2 9 C-2.20140476 5.37471432 -1.85776765 3.13498292 0 0 Z " fill="#B2B5AB" transform="translate(98,223)"/>
<path d="M0 0 C2.46800047 1.15173355 4.04783565 2.04783565 6 4 C5.625 6.125 5.625 6.125 5 8 C5 7.01 5 6.02 5 5 C4.360625 4.731875 3.72125 4.46375 3.0625 4.1875 C1 3 1 3 0 0 Z " fill="#DDE1CF" transform="translate(146,153)"/>
<path d="M0 0 C0.33 1.32 0.66 2.64 1 4 C-1.31 4.33 -3.62 4.66 -6 5 C-5.67 4.01 -5.34 3.02 -5 2 C-3 1.375 -3 1.375 -1 1 C-0.67 0.67 -0.34 0.34 0 0 Z " fill="#C4C9B6" transform="translate(324,132)"/>
<path d="M0 0 C0.33 0 0.66 0 1 0 C0.125 6.75 0.125 6.75 -1 9 C-1.66 9 -2.32 9 -3 9 C-2.01 6.03 -1.02 3.06 0 0 Z " fill="#DBDFCC" transform="translate(301,118)"/>
<path d="M0 0 C4.51617599 -0.07654536 8.59085217 -0.10228696 13 1 C13 1.33 13 1.66 13 2 C10.69 2.33 8.38 2.66 6 3 C6 2.34 6 1.68 6 1 C4.02 1 2.04 1 0 1 C0 0.67 0 0.34 0 0 Z " fill="#C7C9C0" transform="translate(264,99)"/>
<path d="M0 0 C0.33 1.32 0.66 2.64 1 4 C0.01 3.67 -0.98 3.34 -2 3 C-1.34 3 -0.68 3 0 3 C0 2.01 0 1.02 0 0 Z " fill="#FFFBF8" transform="translate(499,496)"/>
<path d="M0 0 C0.99 0.33 1.98 0.66 3 1 C2.01 1.33 1.02 1.66 0 2 C0 1.34 0 0.68 0 0 Z " fill="#FFFBF8" transform="translate(0,0)"/>
<path d="M0 0 C0.66 0.66 1.32 1.32 2 2 C1.34 2 0.68 2 0 2 C0 1.34 0 0.68 0 0 Z " fill="#FFFBF8" transform="translate(0,498)"/>
<path d="M0 0 C3 1 3 1 3 1 Z " fill="#FFFBF8" transform="translate(497,0)"/>
</svg>
